<?xml version="1.0" encoding="UTF-8" standalone="no"?>
<!-- Created with Inkscape (http://www.inkscape.org/) -->

<svg
   xmlns:osb="http://www.openswatchbook.org/uri/2009/osb"
   xmlns:dc="http://purl.org/dc/elements/1.1/"
   xmlns:cc="http://creativecommons.org/ns#"
   xmlns:rdf="http://www.w3.org/1999/02/22-rdf-syntax-ns#"
   xmlns:svg="http://www.w3.org/2000/svg"
   xmlns="http://www.w3.org/2000/svg"
   xmlns:sodipodi="http://sodipodi.sourceforge.net/DTD/sodipodi-0.dtd"
   xmlns:inkscape="http://www.inkscape.org/namespaces/inkscape"
   width="210mm"
   height="297mm"
   viewBox="0 0 210 297"
   version="1.1"
   id="svg8"
   sodipodi:docname="paper.svg"
   inkscape:version="0.92.2 (5c3e80d, 2017-08-06)">
  <defs
     id="defs2">
    <linearGradient
       id="linearGradient5608"
       osb:paint="solid">
      <stop
         style="stop-color:#4d231a;stop-opacity:1;"
         offset="0"
         id="stop5606" />
    </linearGradient>
  </defs>
  <sodipodi:namedview
     id="base"
     pagecolor="#ffffff"
     bordercolor="#666666"
     borderopacity="1.0"
     inkscape:pageopacity="0.0"
     inkscape:pageshadow="2"
     inkscape:zoom="0.47646844"
     inkscape:cx="188.75335"
     inkscape:cy="494.95537"
     inkscape:document-units="mm"
     inkscape:current-layer="layer1"
     showgrid="false"
     inkscape:snap-object-midpoints="false"
     inkscape:snap-others="false"
     inkscape:object-nodes="false"
     inkscape:snap-nodes="false"
     inkscape:snap-global="false"
     inkscape:measure-start="0,0"
     inkscape:measure-end="0,0"
     inkscape:window-width="1600"
     inkscape:window-height="837"
     inkscape:window-x="-8"
     inkscape:window-y="-8"
     inkscape:window-maximized="1" />
  <metadata
     id="metadata5">
    <rdf:RDF>
      <cc:Work
         rdf:about="">
        <dc:format>image/svg+xml</dc:format>
        <dc:type
           rdf:resource="http://purl.org/dc/dcmitype/StillImage" />
      </cc:Work>
    </rdf:RDF>
  </metadata>
  <g
     inkscape:label="Layer 1"
     inkscape:groupmode="layer"
     id="layer1">
    <path
       style="opacity:1;fill:#ffffff;fill-opacity:1;stroke:#030303;stroke-width:1;stroke-linejoin:bevel;stroke-miterlimit:4;stroke-dasharray:none;stroke-opacity:1;paint-order:fill markers stroke"
       d="m 63.752405,227.18191 c -3.880122,-0.18757 -5.30185,-0.52565 -8.038253,-1.91145 -2.146461,-1.08704 -3.396779,-2.01136 -5.769604,-4.26532 -2.834265,-2.69227 -3.346469,-3.93751 -3.964549,-9.63838 -0.2072,-1.9111 -0.320164,-22.55707 -0.393898,-71.99131 L 45.48272,70.063695 46.83408,67.6806 c 0.918744,-1.620184 2.004938,-3.050783 3.392929,-4.468743 3.8505,-3.933632 5.934239,-5.054727 10.718239,-5.766628 2.824948,-0.420378 84.275332,-0.625335 90.849822,-0.228608 7.47823,0.45126 9.20689,1.001718 12.80344,4.076999 2.48377,2.123778 4.1881,4.169246 5.64618,6.776299 l 1.07289,1.918316 v 72.167115 72.16711 l -1.21219,2.09042 c -0.6667,1.14973 -1.78637,2.78288 -2.48816,3.6292 -1.55038,1.8697 -5.24873,4.91582 -6.80325,5.60346 -1.76152,0.7792 -5.19132,1.26913 -10.78584,1.5407 -5.69576,0.27649 -80.544439,0.27273 -86.275735,-0.004 z"
       id="path5672"
       inkscape:connector-curvature="0"
       sodipodi:nodetypes="cccsscssssccccccccscc" />
    <path
       style="fill:none;stroke:#1621ea;stroke-width:0.99897361;stroke-linecap:butt;stroke-linejoin:miter;stroke-miterlimit:4;stroke-dasharray:none;stroke-opacity:1"
       d="M 46.010231,91.867708 H 170.79977"
       id="path5686"
       inkscape:connector-curvature="0" />
    <path
       style="fill:none;stroke:#1621ea;stroke-width:0.99680245;stroke-linecap:butt;stroke-linejoin:miter;stroke-miterlimit:4;stroke-dasharray:none;stroke-opacity:1"
       d="M 46.044937,106.86771 H 170.79977"
       id="path5688"
       inkscape:connector-curvature="0" />
    <path
       inkscape:connector-curvature="0"
       id="path5690"
       d="M 45.993083,76.8675 H 170.79983"
       style="fill:none;stroke:#1621ea;stroke-width:0.99904239;stroke-linecap:butt;stroke-linejoin:miter;stroke-miterlimit:4;stroke-dasharray:none;stroke-opacity:1" />
    <path
       inkscape:connector-curvature="0"
       id="path5692"
       d="M 46.06229,121.86771 H 170.78242"
       style="fill:none;stroke:#1621ea;stroke-width:0.99666578;stroke-linecap:butt;stroke-linejoin:miter;stroke-miterlimit:4;stroke-dasharray:none;stroke-opacity:1" />
    <path
       style="fill:none;stroke:#1621ea;stroke-width:0.99666578;stroke-linecap:butt;stroke-linejoin:miter;stroke-miterlimit:4;stroke-dasharray:none;stroke-opacity:1"
       d="M 46.079643,136.86771 H 170.79977"
       id="path5694"
       inkscape:connector-curvature="0" />
    <path
       inkscape:connector-curvature="0"
       id="path5696"
       d="M 46.096996,151.86771 H 170.79977"
       style="fill:none;stroke:#1621ea;stroke-width:0.99659646;stroke-linecap:butt;stroke-linejoin:miter;stroke-miterlimit:4;stroke-dasharray:none;stroke-opacity:1" />
    <path
       style="fill:none;stroke:#1621ea;stroke-width:0.99638838;stroke-linecap:butt;stroke-linejoin:miter;stroke-miterlimit:4;stroke-dasharray:none;stroke-opacity:1"
       d="M 46.149056,166.86771 H 170.79977"
       id="path5698"
       inkscape:connector-curvature="0" />
    <path
       inkscape:connector-curvature="0"
       id="path5700"
       d="M 46.183762,181.86771 H 170.79977"
       style="fill:none;stroke:#1621ea;stroke-width:0.99624968;stroke-linecap:butt;stroke-linejoin:miter;stroke-miterlimit:4;stroke-dasharray:none;stroke-opacity:1" />
    <path
       style="fill:none;stroke:#1621ea;stroke-width:0.99597216;stroke-linecap:butt;stroke-linejoin:miter;stroke-miterlimit:4;stroke-dasharray:none;stroke-opacity:1"
       d="M 46.253175,196.86771 H 170.79977"
       id="path5702"
       inkscape:connector-curvature="0" />
    <path
       inkscape:connector-curvature="0"
       id="path5704"
       d="M 46.496119,211.86771 H 170.79977"
       style="fill:none;stroke:#1621ea;stroke-width:0.9950003;stroke-linecap:butt;stroke-linejoin:miter;stroke-miterlimit:4;stroke-dasharray:none;stroke-opacity:1" />
    <path
       style="opacity:1;fill:#ffffff;fill-opacity:1;stroke:#030303;stroke-width:0.5;stroke-linecap:butt;stroke-linejoin:round;stroke-miterlimit:4;stroke-dasharray:none;paint-order:fill markers stroke;stroke-opacity:1"
       d="m 56.068848,148.45103 c -2.887462,-0.69324 -4.198297,-4.3353 -2.401464,-6.6723 1.318602,-1.715 3.355488,-2.1731 5.367071,-1.20707 4.488771,2.15566 1.895265,9.04639 -2.965607,7.87937 z"
       id="path5714"
       inkscape:connector-curvature="0" />
    <path
       style="opacity:1;fill:#ff0000;fill-opacity:1;stroke:#2b0000;stroke-width:0.26694158;stroke-linecap:butt;stroke-linejoin:round;stroke-miterlimit:4;stroke-dasharray:none;paint-order:fill markers stroke"
       d="m 55.219813,88.254055 c -0.458521,-0.198655 -1.179769,-0.812886 -1.602772,-1.364952 -0.641458,-0.83718 -0.769095,-1.257716 -0.769095,-2.533983 0,-1.715855 0.491444,-2.607511 2.000747,-3.630071 1.218262,-0.825379 3.325651,-0.824961 4.556738,7.97e-4 2.723316,1.826916 2.55849,5.936779 -0.29624,7.386545 -1.190365,0.604524 -2.694446,0.659265 -3.889378,0.141558 z"
       id="path5716"
       inkscape:connector-curvature="0" />
    <path
       inkscape:connector-curvature="0"
       id="path5720"
       d="m 55.219813,88.254055 c -0.458521,-0.198655 -1.179769,-0.812886 -1.602772,-1.364952 -0.641458,-0.83718 -0.769095,-1.257716 -0.769095,-2.533983 0,-1.715855 0.491444,-2.607511 2.000747,-3.630071 1.218262,-0.825379 3.325651,-0.824961 4.556738,7.97e-4 2.723316,1.826916 2.55849,5.936779 -0.29624,7.386545 -1.190365,0.604524 -2.694446,0.659265 -3.889378,0.141558 z"
       style="opacity:1;fill:#ffffff;fill-opacity:1;stroke:#000000;stroke-width:0.5;stroke-linecap:butt;stroke-linejoin:round;stroke-miterlimit:4;stroke-dasharray:none;paint-order:fill markers stroke;stroke-opacity:1" />
    <path
       style="opacity:1;fill:#ffffff;fill-opacity:1;stroke:#000000;stroke-width:0.5;stroke-linecap:butt;stroke-linejoin:round;stroke-miterlimit:4;stroke-dasharray:none;paint-order:fill markers stroke;stroke-opacity:1"
       d="m 55.219813,208.78526 c -0.458521,-0.19865 -1.179769,-0.81288 -1.602772,-1.36495 -0.641458,-0.83718 -0.769095,-1.25771 -0.769095,-2.53398 0,-1.71586 0.491444,-2.60751 2.000747,-3.63007 1.218262,-0.82538 3.325651,-0.82496 4.556738,7.9e-4 2.723316,1.82692 2.55849,5.93678 -0.29624,7.38655 -1.190365,0.60452 -2.694446,0.65926 -3.889378,0.14156 z"
       id="path5722"
       inkscape:connector-curvature="0" />
    <path
       style="fill:none;stroke:#ff1b06;stroke-width:1.49928308;stroke-linecap:butt;stroke-linejoin:miter;stroke-miterlimit:4;stroke-dasharray:none;stroke-opacity:1"
       d="M 68.647759,57.742587 V 226.77594 Z"
       id="path5684"
       inkscape:connector-curvature="0" />
  </g>
</svg>
