<?xml version="1.0" encoding="UTF-8" standalone="no"?>
<!-- Created with Inkscape (http://www.inkscape.org/) -->

<svg
   xmlns:dc="http://purl.org/dc/elements/1.1/"
   xmlns:cc="http://creativecommons.org/ns#"
   xmlns:rdf="http://www.w3.org/1999/02/22-rdf-syntax-ns#"
   xmlns:svg="http://www.w3.org/2000/svg"
   xmlns="http://www.w3.org/2000/svg"
   xmlns:sodipodi="http://sodipodi.sourceforge.net/DTD/sodipodi-0.dtd"
   xmlns:inkscape="http://www.inkscape.org/namespaces/inkscape"
   width="139.77409mm"
   height="148.63159mm"
   viewBox="0 0 139.77409 148.63159"
   version="1.1"
   id="svg8"
   inkscape:version="0.92.2 (5c3e80d, 2017-08-06)"
   sodipodi:docname="rock2.svg">
  <title
     id="title1400">rock</title>
  <defs
     id="defs2" />
  <sodipodi:namedview
     id="base"
     pagecolor="#ffffff"
     bordercolor="#666666"
     borderopacity="1.0"
     inkscape:pageopacity="0.0"
     inkscape:pageshadow="2"
     inkscape:zoom="0.57723755"
     inkscape:cx="201.9859"
     inkscape:cy="165.22022"
     inkscape:document-units="mm"
     inkscape:current-layer="layer1"
     showgrid="false"
     inkscape:window-width="1600"
     inkscape:window-height="837"
     inkscape:window-x="-8"
     inkscape:window-y="-8"
     inkscape:window-maximized="1"
     inkscape:snap-global="false" />
  <metadata
     id="metadata5">
    <rdf:RDF>
      <cc:Work
         rdf:about="">
        <dc:format>image/svg+xml</dc:format>
        <dc:type
           rdf:resource="http://purl.org/dc/dcmitype/StillImage" />
        <dc:title>rock</dc:title>
      </cc:Work>
    </rdf:RDF>
  </metadata>
  <g
     inkscape:label="Layer 1"
     inkscape:groupmode="layer"
     id="layer1"
     transform="translate(-30.829467,-42.861511)">
    <path
       style="fill:none;fill-rule:evenodd;stroke:#000000;stroke-width:0.26458332px;stroke-linecap:butt;stroke-linejoin:miter;stroke-opacity:1"
       d="M 111.04222,80.694696 99.07113,53.862935"
       id="path32"
       inkscape:connector-type="polyline"
       inkscape:connector-curvature="0" />
    <path
       style="display:inline;fill:none;fill-rule:evenodd;stroke:#000000;stroke-width:0.26458332px;stroke-linecap:butt;stroke-linejoin:miter;stroke-opacity:1"
       d="M 99.07113,53.862935 59.855474,97.619351"
       id="path34"
       inkscape:connector-type="polyline"
       inkscape:connector-curvature="0"
       sodipodi:nodetypes="cc" />
    <path
       style="fill:none;fill-rule:evenodd;stroke:#000000;stroke-width:0.26458332px;stroke-linecap:butt;stroke-linejoin:miter;stroke-opacity:1"
       d="M 59.855472,97.61935 36.738877,141.37577"
       id="path42"
       inkscape:connector-type="polyline"
       inkscape:connector-curvature="0" />
    <path
       style="fill:none;fill-rule:evenodd;stroke:#000000;stroke-width:0.26458332px;stroke-linecap:butt;stroke-linejoin:miter;stroke-opacity:1"
       d="m 36.738877,141.37577 -5.779148,32.61091"
       id="path44"
       inkscape:connector-type="polyline"
       inkscape:connector-curvature="0" />
    <path
       style="fill:none;fill-rule:evenodd;stroke:#000000;stroke-width:0.26458332px;stroke-linecap:butt;stroke-linejoin:miter;stroke-opacity:1"
       d="m 30.959729,173.98668 14.860669,16.51185"
       id="path46"
       inkscape:connector-type="polyline"
       inkscape:connector-curvature="0"
       sodipodi:nodetypes="cc" />
    <path
       style="fill:none;fill-rule:evenodd;stroke:#000000;stroke-width:0.26458332px;stroke-linecap:butt;stroke-linejoin:miter;stroke-opacity:1"
       d="m 45.820398,190.49853 67.698602,0.8256"
       id="path48"
       inkscape:connector-type="polyline"
       inkscape:connector-curvature="0" />
    <path
       style="fill:none;fill-rule:evenodd;stroke:#000000;stroke-width:0.26703179px;stroke-linecap:butt;stroke-linejoin:miter;stroke-opacity:1"
       d="m 113.49663,191.34807 57.01064,-6.64921"
       id="path50"
       inkscape:connector-type="polyline"
       inkscape:connector-curvature="0" />
    <path
       style="fill:none;fill-rule:evenodd;stroke:#000000;stroke-width:0.19139099px;stroke-linecap:butt;stroke-linejoin:miter;stroke-opacity:1"
       d="m 170.50727,184.69886 -7.4527,-27.63683"
       id="path54"
       inkscape:connector-type="polyline"
       inkscape:connector-curvature="0" />
    <path
       style="fill:none;fill-rule:evenodd;stroke:#000000;stroke-width:0.26458332px;stroke-linecap:butt;stroke-linejoin:miter;stroke-opacity:1"
       d="m 163.05457,157.06203 0.82559,-38.39006"
       id="path56"
       inkscape:connector-type="polyline"
       inkscape:connector-curvature="0"
       sodipodi:nodetypes="cc" />
    <path
       style="fill:none;fill-rule:evenodd;stroke:#000000;stroke-width:0.26458332px;stroke-linecap:butt;stroke-linejoin:miter;stroke-opacity:1"
       d="M 111.04222,80.694696 99.483925,121.56154"
       id="path64"
       inkscape:connector-type="polyline"
       inkscape:connector-curvature="0"
       sodipodi:nodetypes="cc" />
    <path
       style="display:inline;fill:none;fill-rule:evenodd;stroke:#000000;stroke-width:0.26458332px;stroke-linecap:butt;stroke-linejoin:miter;stroke-opacity:1"
       d="M 59.855472,97.619348 99.483925,121.56154"
       id="path66"
       inkscape:connector-type="polyline"
       inkscape:connector-curvature="0" />
    <path
       style="fill:none;fill-rule:evenodd;stroke:#000000;stroke-width:0.21156308px;stroke-linecap:butt;stroke-linejoin:miter;stroke-opacity:1"
       d="M 99.500615,121.53205 59.442677,141.37577"
       id="path68"
       inkscape:connector-type="polyline"
       inkscape:connector-curvature="0" />
    <path
       style="fill:none;fill-rule:evenodd;stroke:#000000;stroke-width:0.26458332px;stroke-linecap:butt;stroke-linejoin:miter;stroke-opacity:1"
       d="m 36.738877,141.37577 66.460213,-0.4128"
       id="path70"
       inkscape:connector-type="polyline"
       inkscape:connector-curvature="0" />
    <path
       style="display:inline;fill:none;fill-rule:evenodd;stroke:#000000;stroke-width:0.26458332px;stroke-linecap:butt;stroke-linejoin:miter;stroke-opacity:1"
       d="M 103.19909,140.96297 99.483925,121.56154"
       id="path72"
       inkscape:connector-type="polyline"
       inkscape:connector-curvature="0" />
    <path
       style="fill:none;fill-rule:evenodd;stroke:#000000;stroke-width:0.35342473px;stroke-linecap:butt;stroke-linejoin:miter;stroke-opacity:1"
       d="m 103.19909,140.96297 67.30818,43.73589"
       id="path74"
       inkscape:connector-type="polyline"
       inkscape:connector-curvature="0"
       sodipodi:nodetypes="cc" />
    <path
       style="fill:none;fill-rule:evenodd;stroke:#000000;stroke-width:0.25252515px;stroke-linecap:butt;stroke-linejoin:miter;stroke-opacity:1"
       d="m 59.442677,141.37577 31.372525,21.05261"
       id="path76"
       inkscape:connector-type="polyline"
       inkscape:connector-curvature="0"
       sodipodi:nodetypes="cc" />
    <path
       style="display:inline;fill:#ff0000;fill-rule:evenodd;stroke:#000000;stroke-width:0.26458332px;stroke-linecap:butt;stroke-linejoin:miter;stroke-opacity:1"
       d="M 90.815202,162.42838 113.519,191.32413"
       id="path78"
       inkscape:connector-type="polyline"
       inkscape:connector-curvature="0"
       sodipodi:nodetypes="cc" />
    <path
       style="opacity:1;fill:#decd87;fill-opacity:1;stroke:#000000;stroke-width:0.7612192;stroke-linecap:butt;stroke-linejoin:round;stroke-miterlimit:4;stroke-dasharray:none;stroke-dashoffset:0;stroke-opacity:1;paint-order:normal"
       d="m 105.422,69.047448 c -3.45865,-6.706719 -6.538981,-13.646476 -6.474967,-13.710329 -1.061406,-0.36223 -6.516117,1.89359 -5.129457,0.539714 C 98.911763,50.903082 123.7,38.588458 137.1703,45.113597 c 10.1916,4.936906 26.97221,23.457071 24.5009,25.469566 -0.10449,0.09944 -11.49414,2.333213 -25.31032,4.963946 l -25.12035,4.783153 z"
       id="path961"
       inkscape:connector-curvature="0"
       sodipodi:nodetypes="scsscscs" />
    <path
       style="opacity:1;fill:#c8ab37;fill-opacity:1;stroke:#000000;stroke-width:2.94836283;stroke-linecap:butt;stroke-linejoin:round;stroke-miterlimit:4;stroke-dasharray:none;stroke-dashoffset:0;stroke-opacity:1;paint-order:normal"
       d="m 514.87465,612.1031 -123.89475,-80.53288 -6.81701,-36.09023 -6.81701,-36.09022 c -17.87922,-27.99219 -14.75744,-60.65126 -6.15729,-94.52775 3.24283,-30.68092 29.73488,-41.98748 49.4624,-58.93116 l 94.3906,-18.67131 c 51.91484,-10.26922 96.8019,-22.58543 96.99214,-22.41166 0.19024,0.17377 -14.17473,23.59081 -29.16526,47.08017 -27.18039,42.59021 -58.80024,49.77508 -56.19623,53.77547 1.43616,2.2063 9.62824,35.24305 36.48295,44.81507 20.4828,7.30083 70.25708,2.23935 64.78558,16.61863 2.18724,-14.43113 -8.74906,64.30295 -11.33546,93.8364 l -1.70563,72.03431 13.25805,48.88985 c 7.29193,26.88942 13.25806,49.30574 13.25806,49.81403 0,0.50829 -0.59544,0.92415 -1.32318,0.92415 -0.72776,0 -57.07585,-36.2398 -125.21796,-80.53287 z"
       id="path963"
       inkscape:connector-curvature="0"
       sodipodi:nodetypes="scccccssscscccssss"
       transform="scale(0.26458333)" />
    <path
       style="opacity:1;fill:#786721;fill-opacity:1;stroke:#000000;stroke-width:2.94836283;stroke-linecap:butt;stroke-linejoin:round;stroke-miterlimit:4;stroke-dasharray:none;stroke-dashoffset:0;stroke-opacity:1;paint-order:normal"
       d="m 302.12225,413.40312 c -39.44792,-23.90078 -71.92484,-44.06 -72.17093,-44.7983 -28.40649,-27.5283 131.46139,-180.70425 145.86329,-169.2329 0.63835,0.50846 9.01078,30.59408 20.92958,57.19506 l 21.67055,48.36544 -35.96554,47.13205 c -26.37029,34.55768 -7.39433,104.93561 -7.82338,104.88558 -0.42905,-0.05 -33.05566,-19.64615 -72.50357,-43.54693 z"
       id="path965"
       inkscape:connector-curvature="0"
       sodipodi:nodetypes="scsscscs"
       transform="scale(0.26458333)" />
    <path
       style="opacity:1;fill:#504416;fill-opacity:1;stroke:#000000;stroke-width:2.94836283;stroke-linecap:butt;stroke-linejoin:round;stroke-miterlimit:4;stroke-dasharray:none;stroke-dashoffset:0;stroke-opacity:1;paint-order:normal"
       d="m 327.04047,720.639 c -41.18862,-0.56641 -92.46889,-1.13113 -113.95614,-1.25493 l -39.06774,-0.22512 -27.23971,-30.38057 c -14.98185,-16.70933 -27.39017,-31.6285 -27.57405,-33.15373 -0.18389,-1.52523 4.37963,-29.1011 10.14114,-61.27972 l 10.75357,-58.78467 39.85845,-3.75284 58.41879,-11.74543 50.16727,45.51392 54.10018,49.44683 36.66411,46.68482 c 21.15032,26.93094 39.55441,50.52935 41.88417,53.62828 l 5.22005,6.94346 -12.24084,-0.30525 c -6.73246,-0.16787 -45.94062,-0.76865 -87.12925,-1.33505 z"
       id="path967"
       inkscape:connector-curvature="0"
       transform="scale(0.26458333)"
       sodipodi:nodetypes="sscscscccccssccs" />
    <path
       style="opacity:1;fill:#a0892c;fill-opacity:1;stroke:#000000;stroke-width:2.94836283;stroke-linecap:butt;stroke-linejoin:round;stroke-miterlimit:4;stroke-dasharray:none;stroke-dashoffset:0;stroke-opacity:1;paint-order:normal"
       d="m 387.28121,667.8055 -60.82218,-35.63046 -37.8589,-56.52502 c -20.6402,-30.81674 -55.95026,-42.36899 -55.95026,-43.04175 0,-0.67276 4.55477,-30.28669 46.60511,-21.58769 l 114.25113,28.16498 120.66828,75.92239 c 119.58525,75.24096 125.11699,81.49112 120.46392,82.5679 -2.7081,0.62671 -48.10168,6.08979 -100.87461,12.1402 -52.77293,6.0504 -97.70598,11.33759 -99.85122,11.7493 -3.53547,0.67854 -7.89887,-4.35192 -46.63127,-53.75985 z"
       id="path969"
       inkscape:connector-curvature="0"
       transform="scale(0.26458333)"
       sodipodi:nodetypes="scssscscscs" />
    <path
       style="opacity:1;fill:#d3bc5f;fill-opacity:1;stroke:#000000;stroke-width:2.94836283;stroke-linecap:butt;stroke-linejoin:round;stroke-miterlimit:4;stroke-dasharray:none;stroke-dashoffset:0;stroke-opacity:1;paint-order:normal"
       d="m 145.67771,523.99965 c 3.03241,-5.50206 18.26962,-45.25611 31.39217,-86.886 12.00761,-38.09285 43.27118,-101.56959 75.93374,-114.79669 14.17083,-5.73865 7.27933,68.70192 47.45022,92.96256 l 76.37513,42.99786 16.65912,79.79822 -116.67967,-26.83546 -93.4927,21.80383 -43.15149,0.95943 z"
       id="path973"
       inkscape:connector-curvature="0"
       transform="scale(0.26458333)"
       sodipodi:nodetypes="sssscccccs" />
    <path
       style="fill:none;fill-rule:evenodd;stroke:#000000;stroke-width:0.26458332px;stroke-linecap:butt;stroke-linejoin:miter;stroke-opacity:1"
       d="m 102.86646,141.20269 0.7383,1.331"
       id="path975"
       inkscape:connector-type="polyline"
       inkscape:connector-curvature="0"
       inkscape:connection-end="#path969" />
    <path
       style="fill:none;fill-rule:evenodd;stroke:#000000;stroke-width:0.26458332px;stroke-linecap:butt;stroke-linejoin:miter;stroke-opacity:1"
       d="m 102.86647,141.2027 0.73829,1.33099"
       id="path977"
       inkscape:connector-type="polyline"
       inkscape:connector-curvature="0"
       inkscape:connection-end="#path969" />
    <path
       style="fill:none;fill-rule:evenodd;stroke:#000000;stroke-width:0.26458332px;stroke-linecap:butt;stroke-linejoin:miter;stroke-opacity:1"
       d="m 117.64696,166.96914 13.62229,6.60474"
       id="path981"
       inkscape:connector-type="polyline"
       inkscape:connector-curvature="0" />
    <path
       style="fill:#504416;fill-rule:evenodd;stroke:#000000;stroke-width:0.26458332px;stroke-linecap:butt;stroke-linejoin:miter;stroke-opacity:1"
       d="m 131.26925,173.57388 39.23802,11.12498"
       id="path985"
       inkscape:connector-type="polyline"
       inkscape:connector-curvature="0" />
    <path
       style="opacity:1;fill:#181300;fill-opacity:1;stroke:#000000;stroke-width:2.94836283;stroke-linecap:butt;stroke-linejoin:round;stroke-miterlimit:4;stroke-dasharray:none;stroke-dashoffset:0;stroke-opacity:1;paint-order:normal"
       d="M 555.60615,671.70803 C 497.02635,654.95376 492.78352,653.4886 469.79651,642.0757 L 445.61379,630.06914 421.0776,587.63427 c -13.49491,-23.33917 -24.55265,-43.03653 -24.57276,-43.77191 -0.0201,-0.73538 1.05811,-0.76353 2.49581,-0.36529 32.8194,9.09081 84.00107,59.67032 175.8341,90.9951 5.74467,1.95954 30.8694,7.55295 43.56845,54.93254 -0.64357,-0.05 -28.90224,-8.02251 -62.79705,-17.71668 z"
       id="path987"
       inkscape:connector-curvature="0"
       transform="scale(0.26458333)"
       sodipodi:nodetypes="sscscsscs" />
    <path
       style="opacity:1;fill:#000000;fill-opacity:1;stroke:#000000;stroke-width:0.18427268;stroke-linecap:butt;stroke-linejoin:round;stroke-miterlimit:4;stroke-dasharray:none;stroke-dashoffset:0;stroke-opacity:1;paint-order:normal"
       d=""
       id="path999"
       inkscape:connector-curvature="0"
       transform="scale(0.26458333)" />
    <path
       style="fill:none;stroke:#000000;stroke-width:0.26458332px;stroke-linecap:butt;stroke-linejoin:miter;stroke-opacity:1"
       d="m 37.085119,141.2884 c -0.01617,-0.0647 -0.02498,-0.1317 -0.04854,-0.19408 -0.0029,-0.008 -0.01654,0 -0.02479,0 -0.01654,0 -0.03305,0 -0.04958,0 -0.0083,0 -0.01894,-0.006 -0.02479,0 -0.0058,0.006 0.0058,0.0189 0,0.0248 -0.0058,0.006 -0.01894,-0.006 -0.02479,0 -0.0117,0.0117 0.01169,0.0379 0,0.0496 -0.0058,0.006 -0.01894,-0.006 -0.02479,0 -0.0058,0.006 0.0058,0.0189 0,0.0248 -0.0058,0.006 -0.01894,-0.006 -0.02479,0 -0.0058,0.006 0,0.0165 0,0.0248 0,0.008 0,0.0165 0,0.0248 0,0.008 0.0058,0.0189 0,0.0248 -0.0058,0.006 -0.01894,-0.006 -0.02479,0 -0.01169,0.0117 0.01169,0.0379 0,0.0496 -0.0058,0.006 -0.01894,-0.006 -0.02479,0 -0.01169,0.0117 0.0117,0.0379 0,0.0496 -0.0058,0.006 -0.01894,-0.006 -0.02479,0 -0.01169,0.0117 0.01169,0.0379 0,0.0496 -0.0058,0.006 -0.01894,-0.006 -0.02479,0 -0.01169,0.0117 0.0117,0.0379 0,0.0496 -0.0058,0.006 -0.01894,-0.006 -0.02479,0 -0.0058,0.006 0,0.0165 0,0.0248 0,0.0165 0,0.0331 0,0.0496 0,0.008 0.0058,0.019 0,0.0248 -0.0058,0.006 -0.01894,0.006 -0.02479,0 -0.0058,-0.006 0,-0.0165 0,-0.0248 0,-0.008 0,-0.0165 0,-0.0248 0,-0.008 0,-0.0165 0,-0.0248 0,-0.008 -0.0083,-0.0248 0,-0.0248 0.0083,0 0,0.0331 0,0.0248 0,-0.0248 0,-0.0496 0,-0.0744 0,-0.008 0,-0.0165 0,-0.0248 0,-0.008 -0.0069,-0.0203 0,-0.0248 0.0073,-0.005 0.01638,0.006 0.02455,0.009"
       id="path1265"
       inkscape:connector-curvature="0" />
    <path
       style="fill:none;stroke:#000000;stroke-width:0.26458332px;stroke-linecap:butt;stroke-linejoin:miter;stroke-opacity:1"
       d="m 167.95148,183.31192 c 0.0567,0.20825 0.0444,0.0349 -0.0225,0.12409 -0.0157,0.0209 -0.0131,0.051 -0.0248,0.0744 -0.005,0.0104 -0.0196,0.0143 -0.0248,0.0248 -0.004,0.007 0,0.0165 0,0.0248 0,0.008 -0.008,0.0228 0,0.0248 0.064,0.016 0.13848,-0.008 0.19832,-0.0248 0.058,-0.0158 0.11688,-0.0293 0.17354,-0.0496 0.002,-5.3e-4 0.34586,-0.14835 0.34706,-0.14874 0.0646,-0.0215 0.13472,-0.0251 0.19832,-0.0496 0.045,-0.0173 0.0799,-0.0548 0.12395,-0.0744 0.0693,-0.0308 0.10431,-0.0248 0.17353,-0.0248 0.008,0 -0.0202,-0.007 -0.0248,0 -0.0145,0.0217 -0.0131,0.051 -0.0248,0.0744 -0.005,0.0104 -0.0183,0.0151 -0.0248,0.0248 -0.0102,0.0154 -0.0117,0.0365 -0.0248,0.0496 -0.0299,0.0299 -0.0848,0.0548 -0.12395,0.0744 -0.0331,0.0165 -0.0641,0.0379 -0.0992,0.0496 -0.0157,0.005 -0.0336,-0.004 -0.0496,0 -0.0179,0.004 -0.0311,0.0248 -0.0496,0.0248 -0.008,0 0,-0.0165 0,-0.0248 0,-0.008 -0.005,-0.0182 0,-0.0248 0.021,-0.028 0.0443,-0.0563 0.0744,-0.0744 0.0142,-0.008 0.0348,0.007 0.0496,0 0.17539,-0.0877 -0.0926,-0.0202 0.12395,-0.0744 0.008,-0.002 0.0248,-0.008 0.0248,0 0,0.008 -0.0167,-0.002 -0.0248,0 -0.0334,0.007 -0.0673,0.0128 -0.0992,0.0248 -0.0346,0.013 -0.0649,0.0359 -0.0992,0.0496 -0.0485,0.0194 -0.1005,0.0295 -0.14875,0.0496 -0.0512,0.0213 -0.0966,0.0554 -0.14874,0.0744 -0.47929,0.17428 0.2645,-0.15704 -0.2479,0.0992 -0.0234,0.0117 -0.049,0.0184 -0.0744,0.0248 -0.008,0.002 -0.0326,0.003 -0.0248,0 0.0323,-0.0108 0.0664,-0.0154 0.0992,-0.0248 0.0251,-0.007 0.0496,-0.0165 0.0744,-0.0248 0.0248,-0.008 0.0496,-0.0165 0.0744,-0.0248 0.0248,-0.008 0.0496,-0.0165 0.0744,-0.0248 0.0248,-0.008 0.0488,-0.0197 0.0744,-0.0248 0.0162,-0.003 0.0548,-0.0157 0.0496,0 -0.0668,0.20048 -0.0425,0.046 -0.0992,0.0744 -0.0267,0.0133 -0.0496,0.0331 -0.0744,0.0496 -0.0248,0.0165 -0.0467,0.0385 -0.0744,0.0496 -0.0153,0.006 -0.0339,-0.005 -0.0496,0 -0.007,0.002 -0.0413,0.0331 -0.0248,0.0496 0.006,0.006 0.017,0.003 0.0248,0 0.0175,-0.006 0.0324,-0.0179 0.0496,-0.0248 0.0243,-0.01 0.0496,-0.0165 0.0744,-0.0248 0.0496,-0.0165 0.0973,-0.0402 0.14874,-0.0496 0.0406,-0.007 0.083,0.005 0.12395,0 0.0259,-0.003 0.0496,-0.0165 0.0744,-0.0248 0.0248,-0.008 0.049,-0.0184 0.0744,-0.0248 0.008,-0.002 0.0306,-0.006 0.0248,0 -0.0131,0.0131 -0.0331,0.0165 -0.0496,0.0248 -0.0165,0.008 -0.0331,0.0165 -0.0496,0.0248 -0.0248,0.008 -0.051,0.0131 -0.0744,0.0248 -0.0266,0.0133 -0.0477,0.0363 -0.0744,0.0496 -0.0398,0.0199 -0.0823,0.034 -0.12395,0.0496 -0.0245,0.009 -0.051,0.0131 -0.0744,0.0248 -0.0266,0.0133 -0.0488,0.0342 -0.0744,0.0496 -0.0224,0.0492 -0.0687,0.01 -0.0992,0.0248 -0.007,0.004 -0.007,0.0211 0,0.0248 0.0148,0.007 0.0333,0.003 0.0496,0 0.18362,-0.0306 0.0222,-0.007 0.17353,-0.0744 0.0478,-0.0212 0.10022,-0.0302 0.14874,-0.0496 0.0343,-0.0137 0.0631,-0.0416 0.0992,-0.0496 0.0403,-0.009 0.0826,0 0.12396,0 0.0248,0 0.0496,0 0.0744,0 0.0165,0 0.0348,-0.007 0.0496,0 0.007,0.004 0.007,0.0211 0,0.0248 -0.0148,0.007 -0.0348,-0.007 -0.0496,0 -0.0209,0.0105 -0.0331,0.0331 -0.0496,0.0496 -0.008,0.008 -0.0196,0.0143 -0.0248,0.0248 -0.004,0.007 0.006,0.0189 0,0.0248 -0.006,0.006 -0.0331,0 -0.0248,0 0.0165,0 0.0331,0 0.0496,0 0.0165,0 0.0332,0.002 0.0496,0 0.0499,-0.006 0.1,-0.0126 0.14875,-0.0248 0.0507,-0.0127 0.0976,-0.0386 0.14874,-0.0496 0.0651,-0.014 0.13284,-0.0125 0.19832,-0.0248 0.067,-0.0126 0.1315,-0.0362 0.19832,-0.0496 0.42515,-0.0607 0.0172,0.008 0.2479,-0.0496 0.008,-0.002 0.0322,-0.004 0.0248,0 -0.0234,0.0117 -0.0499,0.0156 -0.0744,0.0248 -0.0833,0.0312 -0.16426,0.0687 -0.2479,0.0992 -0.3055,0.11109 0.0163,-0.0137 -0.32227,0.0992 -0.0422,0.0141 -0.0805,0.0399 -0.12395,0.0496 -0.0323,0.007 -0.0669,-0.007 -0.0992,0 -0.0434,0.01 -0.0823,0.034 -0.12395,0.0496 -0.0245,0.009 -0.0526,0.0103 -0.0744,0.0248 -0.007,0.005 -0.006,0.0189 0,0.0248 0.006,0.006 0.0165,0 0.0248,0 0.008,0 0.0165,0 0.0248,0 0.0874,0 0.0995,0.005 0.19832,-0.0248 0.0426,-0.0128 0.0801,-0.0423 0.12395,-0.0496 0.10628,-0.0177 0.2147,-0.0188 0.32227,-0.0248 0.0413,-0.002 0.0826,0 0.12396,0 0.0248,0 0.0496,0 0.0744,0 0.008,0 0.0211,-0.007 0.0248,0 0.007,0.0148 0.0117,0.0379 0,0.0496 -0.0117,0.0117 -0.0333,-0.003 -0.0496,0 -0.0336,0.006 -0.0657,0.0181 -0.0992,0.0248 -0.0493,0.01 -0.10013,0.012 -0.14874,0.0248 -0.1087,0.0286 -0.21629,0.0617 -0.32228,0.0992 -0.21951,0.0775 0.0322,0.0262 -0.22311,0.0992 -0.0159,0.005 -0.0339,-0.005 -0.0496,0 -0.0111,0.004 -0.0151,0.0183 -0.0248,0.0248 -0.0154,0.0102 -0.0496,0.006 -0.0496,0.0248 0,0.0165 0.0334,0.003 0.0496,0 0.0256,-0.005 0.049,-0.0184 0.0744,-0.0248 0.14402,-0.036 0.26498,-0.0409 0.42143,-0.0496 0.0495,-0.003 0.0992,0 0.14874,0 0.0331,0 0.0661,0 0.0992,0 0.008,0 0.0322,-0.004 0.0248,0 -0.076,0.038 -0.16275,0.0666 -0.2479,0.0744 -0.0494,0.005 -0.0998,-0.008 -0.14874,0 -0.0516,0.009 -0.0992,0.0331 -0.14875,0.0496 -0.0496,0.0165 -0.10021,0.0302 -0.14874,0.0496 -0.0343,0.0137 -0.0646,0.0366 -0.0992,0.0496 -0.0224,0.008 -0.12003,0.0209 -0.14874,0.0496 -0.006,0.006 0.0165,0 0.0248,0 0.0248,0 0.0501,0.005 0.0744,0 0.0181,-0.004 0.032,-0.0189 0.0496,-0.0248 0.0924,-0.0308 0.0875,-0.0248 0.17354,-0.0248 0.0248,0 0.0496,0 0.0744,0 0.0165,0 0.0653,-0.005 0.0496,0 -0.04,0.0133 -0.0828,0.0156 -0.12394,0.0248 -0.0333,0.007 -0.0668,0.014 -0.0992,0.0248 -0.0422,0.0141 -0.0817,0.0355 -0.12395,0.0496 -0.0323,0.0108 -0.0668,0.014 -0.0992,0.0248 -0.0175,0.006 -0.032,0.0189 -0.0496,0.0248 -0.0323,0.0108 -0.0668,0.014 -0.0992,0.0248 -0.0175,0.006 -0.0321,0.0189 -0.0496,0.0248 -0.008,0.003 -0.0331,0 -0.0248,0 0.0331,0 0.0664,0.004 0.0992,0 0.0338,-0.004 0.0661,-0.0165 0.0992,-0.0248 0.0331,-0.008 0.0668,-0.014 0.0992,-0.0248 0.0422,-0.0141 0.0813,-0.0368 0.12395,-0.0496 0.0404,-0.0121 0.084,-0.0114 0.12396,-0.0248 0.0351,-0.0117 0.0641,-0.0379 0.0992,-0.0496 0.0157,-0.005 0.0496,-0.0165 0.0496,0 0,0.0165 -0.0331,0 -0.0496,0 -0.26868,0 -0.0856,0.014 -0.37186,-0.0496 -0.26557,-0.059 -0.19196,-0.0391 -0.42143,-0.0744 -0.0497,-0.008 -0.0987,-0.0202 -0.14874,-0.0248 -0.0411,-0.004 -0.0826,0 -0.12395,0 -0.0165,0 -0.0348,0.007 -0.0496,0 -0.007,-0.004 -0.007,-0.0211 0,-0.0248 0.0148,-0.007 0.0339,0.005 0.0496,0 0.0111,-0.004 0.0151,-0.0183 0.0248,-0.0248 0.0154,-0.0102 0.0324,-0.0179 0.0496,-0.0248 0.0243,-0.01 0.0496,-0.0165 0.0744,-0.0248 0.0248,-0.008 0.0492,-0.0176 0.0744,-0.0248 0.0328,-0.009 0.0675,-0.0121 0.0992,-0.0248 0.0109,-0.004 0.0143,-0.0196 0.0248,-0.0248 0.0103,-0.005 0.0438,0.006 0.0496,0 0.006,-0.006 -0.006,-0.0189 0,-0.0248 0.006,-0.006 0.017,0.003 0.0248,0 0.0992,-0.0331 -0.005,-0.0238 0.12395,-0.0496 0.0162,-0.003 0.0331,0 0.0496,0 0.0248,0 0.0496,0 0.0744,0 0.008,0 0.0189,0.006 0.0248,0 0.006,-0.006 -0.007,-0.0211 0,-0.0248 0.0148,-0.007 0.0334,0.003 0.0496,0 0.0256,-0.005 0.0496,-0.0165 0.0744,-0.0248 0.0331,0 0.0663,0.004 0.0992,0 0.29603,-0.0329 -0.0472,-0.0248 0.2479,-0.0248 0.0165,0 0.0661,0 0.0496,0 -0.0909,0 -0.1818,0 -0.27269,0 -0.0579,0 -0.11584,-0.004 -0.17353,0 -0.0583,0.004 -0.11535,0.0195 -0.17354,0.0248 -0.0329,0.003 -0.0661,0 -0.0992,0 -0.0248,0 -0.0496,0 -0.0744,0 -0.008,0 -0.0165,0 -0.0248,0 -0.008,0 -0.0248,0.008 -0.0248,0 0,-0.008 0.0165,0 0.0248,0 0.0165,0 0.0333,0.003 0.0496,0 0.0336,-0.006 0.0661,-0.0165 0.0992,-0.0248 0.2031,-0.0508 -0.0162,-0.004 0.2479,-0.0248 0.29228,-0.0225 0.0564,-0.0199 0.34707,-0.0744 0.0735,-0.0138 0.14865,-0.0174 0.22311,-0.0248 0.008,-8e-4 0.0189,0.006 0.0248,0 0.006,-0.006 0.008,-0.0222 0,-0.0248 -0.0235,-0.008 -0.0496,0 -0.0744,0 -0.0165,0 -0.0331,0 -0.0496,0 -0.0165,0 -0.0334,-0.003 -0.0496,0 -0.20873,0.0417 -8e-4,2.6e-4 -0.0992,0.0496 -0.007,0.004 -0.0165,0 -0.0248,0 -0.008,0 -0.0331,0 -0.0248,0 0.0413,0 0.0826,0 0.12396,0 0.0248,0 0.0498,0.003 0.0744,0 0.0337,-0.005 0.0656,-0.0192 0.0992,-0.0248 0.0163,-0.003 0.0496,-0.0165 0.0496,0 0,0.0165 -0.0331,0 -0.0496,0 -0.0826,0 -0.16526,0 -0.2479,0 -0.0909,0 -0.18179,0 -0.27269,0 -0.0165,0 -0.0331,0 -0.0496,0 -0.008,0 -0.0248,0.008 -0.0248,0 0,-0.008 0.0168,0.002 0.0248,0 0.0254,-0.006 0.0484,-0.0215 0.0744,-0.0248 0.041,-0.005 0.0826,0 0.12395,0 0.0496,0 0.0992,0 0.14874,0 0.0165,0 -0.0331,0 -0.0496,0 -0.0331,0 -0.0661,0 -0.0992,0 -0.11568,0 -0.23137,0 -0.34706,0 -0.0496,0 -0.0992,0 -0.14874,0 -0.008,0 -0.0248,0.008 -0.0248,0 0,-0.008 0.0165,0 0.0248,0 0.0165,0 0.033,0 0.0496,0 0.0496,0 0.0992,0 0.14874,0 0.0578,0 0.11569,0 0.17353,0 0.0165,0 0.0331,0 0.0496,0 0.008,0 0.0248,-0.008 0.0248,0 0,0.008 -0.0165,0 -0.0248,0 -0.0824,0 -0.0187,-0.007 -0.0992,0.0248 -0.0816,0.0326 -0.0637,0.0248 -0.14874,0.0248 -0.0661,0 -0.13221,0 -0.19832,0 -0.008,0 0.0165,0 0.0248,0 0.033,0 0.0661,0 0.0992,0 0.0413,0 0.0826,0 0.12395,0 0.0331,0 0.0671,0.008 0.0992,0 0.0359,-0.009 0.0636,-0.0394 0.0992,-0.0496 0.0238,-0.007 0.0509,0.008 0.0744,0 0.008,-0.003 0.006,-0.019 0,-0.0248 -0.006,-0.006 -0.0165,0 -0.0248,0 -0.0248,0 -0.0496,0 -0.0744,0 -0.20659,0 -0.41317,0 -0.61976,0 -0.0744,0 -0.14874,0 -0.22311,0 -0.008,0 -0.0331,0 -0.0248,0 0.0248,0 0.0498,0.003 0.0744,0 0.0337,-0.005 0.0659,-0.0174 0.0992,-0.0248 0.0411,-0.009 0.0824,-0.0179 0.12395,-0.0248 0.19782,-0.033 0.14774,-0.0248 0.34706,-0.0248 0.0826,0 0.16527,0 0.24791,0 0.0165,0 0.0331,0 0.0496,0 0.008,0 0.0331,0 0.0248,0 -0.15441,0 0.0617,0.007 -0.0992,-0.0248 -0.0243,-0.005 -0.0501,0.005 -0.0744,0 -0.0181,-0.004 -0.0315,-0.0212 -0.0496,-0.0248 -0.0243,-0.005 -0.0496,0 -0.0744,0 -0.0248,0 -0.0496,0 -0.0744,0 -0.008,0 -0.0248,0.008 -0.0248,0 0,-0.008 0.0174,0.004 0.0248,0 0.0891,-0.0445 -0.0887,-0.0183 0.0992,-0.0496 0.0244,-0.004 0.0503,0.006 0.0744,0 0.0432,-0.0108 0.0812,-0.0374 0.12395,-0.0496 0.0159,-0.005 0.0331,0 0.0496,0 0.0165,0 0.0331,0 0.0496,0 0.008,0 -0.0165,0 -0.0248,0 -0.0248,0 -0.0498,0.003 -0.0744,0 -0.0337,-0.005 -0.0656,-0.0192 -0.0992,-0.0248 -0.0163,-0.003 -0.0331,0 -0.0496,0 -0.0496,0 -0.0992,0 -0.14874,0 -0.0248,0 -0.0496,0 -0.0744,0 -0.008,0 -0.0331,0 -0.0248,0 0.0248,0 0.0498,0.004 0.0744,0 0.0337,-0.005 0.0659,-0.0174 0.0992,-0.0248 0.0411,-0.009 0.0828,-0.0156 0.12395,-0.0248 0.0333,-0.007 0.0654,-0.02 0.0992,-0.0248 0.0245,-0.003 0.0496,0 0.0744,0 0.008,0 0.0331,0 0.0248,0 -0.19832,0 -0.39664,0 -0.59497,0 -0.0578,0 -0.11568,0 -0.17353,0 -0.0165,0 -0.0348,-0.007 -0.0496,0 -0.007,0.004 -0.006,0.0189 0,0.0248 0.006,0.006 0.0165,0 0.0248,0 0.008,0 0.0165,0 0.0248,0 0.0248,0 0.0496,0 0.0744,0 0.0248,0 0.0498,0.003 0.0744,0 0.0418,-0.005 0.0819,-0.0222 0.12395,-0.0248 0.0907,-0.006 0.18179,0 0.27269,0 0.2479,0 0.49581,0 0.74371,0 0.41125,0 -0.004,-0.009 0.37185,0.0248 0.0329,0.003 0.0661,0 0.0992,0 0.0165,0 0.0348,-0.007 0.0496,0 0.007,0.004 0.007,0.0211 0,0.0248 -0.0148,0.007 -0.0336,-0.004 -0.0496,0 -0.16698,0.0418 -2.6e-4,2.7e-4 -0.0496,0.0496 -0.0178,0.0178 -0.0744,-0.0435 -0.0744,0.0248 0,0.0165 0.033,0 0.0496,0 0.0165,0 0.0331,0 0.0496,0 0.0165,0 0.0339,-0.005 0.0496,0 0.0111,0.004 0.0143,0.0195 0.0248,0.0248 0.007,0.004 0.0248,-0.008 0.0248,0 0,0.008 -0.0174,-0.004 -0.0248,0 -0.0105,0.005 -0.0133,0.0225 -0.0248,0.0248 -0.0324,0.006 -0.0661,0 -0.0992,0 -0.0413,0 -0.0826,0 -0.12395,0 -0.0413,0 -0.083,-0.006 -0.12395,0 -0.0183,0.003 -0.0314,0.0217 -0.0496,0.0248 -0.0326,0.005 -0.0661,0 -0.0992,0 -0.008,0 -0.0189,-0.006 -0.0248,0 -0.006,0.006 -0.008,0.0222 0,0.0248 0.0235,0.008 0.0496,0 0.0744,0 0.0826,0 0.16527,0 0.2479,0 0.0248,0 0.0496,0 0.0744,0 0.008,0 0.0248,-0.008 0.0248,0 0,0.008 -0.0165,0 -0.0248,0 -0.0331,0 -0.0663,-0.004 -0.0992,0 -0.0419,0.005 -0.0825,0.0173 -0.12395,0.0248 -0.0495,0.009 -0.0986,0.0209 -0.14874,0.0248 -0.0577,0.004 -0.11569,0 -0.17354,0 -0.0331,0 -0.0661,0 -0.0992,0 -0.0248,0 -0.0496,0 -0.0744,0 -0.0165,0 -0.0496,0.0165 -0.0496,0 0,-0.0165 0.0331,0 0.0496,0 0.0248,0 0.0496,0 0.0744,0 0.0413,0 0.0826,0 0.12396,0 0.0578,0 0.11581,-0.004 0.17353,0 0.0665,0.004 0.13178,0.0215 0.19832,0.0248 0.099,0.005 0.19832,0 0.29748,0 0.0496,0 0.0992,0 0.14874,0 0.008,0 -0.017,-0.003 -0.0248,0 -0.0175,0.006 -0.0314,0.0217 -0.0496,0.0248 -0.0326,0.005 -0.0661,0 -0.0992,0 -0.0248,0 -0.0496,0 -0.0744,0 -0.0413,0 -0.0831,-0.006 -0.12395,0 -0.0183,0.003 -0.032,0.0189 -0.0496,0.0248 -0.0323,0.0108 -0.0656,0.0192 -0.0992,0.0248 -0.0163,0.003 -0.0331,0 -0.0496,0 -0.0165,0 -0.0331,0 -0.0496,0 -0.008,0 -0.0322,-0.004 -0.0248,0 0.0705,0.0352 0.0928,0.0248 0.17353,0.0248 0.0413,0 0.0826,0 0.12395,0 0.0496,0 0.0995,-0.005 0.14875,0 0.026,0.003 0.0486,0.0205 0.0744,0.0248 0.0244,0.004 0.0496,0 0.0744,0 0.008,0 0.0189,-0.006 0.0248,0 0.006,0.006 0.006,0.019 0,0.0248 -0.006,0.006 -0.0166,-0.001 -0.0248,0 -0.0498,0.007 -0.0992,0.0165 -0.14874,0.0248 -0.0496,0.008 -0.0986,0.0206 -0.14875,0.0248 -0.0494,0.004 -0.0993,-0.004 -0.14874,0 -0.0665,0.005 -0.13221,0.0165 -0.19832,0.0248 -0.13221,0.0165 -0.26457,0.032 -0.39664,0.0496 -0.0579,0.008 -0.11546,0.0183 -0.17353,0.0248 -0.0164,0.002 -0.0331,0 -0.0496,0 -0.0248,0 -0.0496,0 -0.0744,0 -0.0165,0 0.0334,0.003 0.0496,0 0.0256,-0.005 0.0489,-0.0191 0.0744,-0.0248 0.0491,-0.0109 0.0998,-0.0135 0.14874,-0.0248 0.0586,-0.0135 0.11491,-0.0361 0.17353,-0.0496 0.049,-0.0113 0.0996,-0.0143 0.14874,-0.0248 0.0666,-0.0143 0.13135,-0.037 0.19832,-0.0496 0.0655,-0.0123 0.13261,-0.0138 0.19832,-0.0248 0.13911,-0.0232 0.0557,-0.0201 0.17354,-0.0496 0.008,-0.002 0.0248,-0.008 0.0248,0 0,0.008 -0.0166,0.001 -0.0248,0 -0.0995,-0.0142 -0.19813,-0.0343 -0.29749,-0.0496 -0.26649,-0.041 -0.0793,-0.006 -0.29748,-0.0496 -0.0413,-0.008 -0.0828,-0.0156 -0.12395,-0.0248 -0.0333,-0.007 -0.0654,-0.02 -0.0992,-0.0248 -0.0245,-0.003 -0.0496,0 -0.0744,0 -0.008,0 -0.0189,0.006 -0.0248,0 -0.006,-0.006 -0.006,-0.0189 0,-0.0248 0.006,-0.006 0.017,0.003 0.0248,0 0.0809,-0.027 0.0208,-0.0324 0.12395,-0.0496 0.14576,-0.0243 0.003,0.0334 0.14874,-0.0248 0.0171,-0.007 0.032,-0.0189 0.0496,-0.0248 0.008,-0.003 0.0331,0 0.0248,0 -0.0165,0 -0.0331,0 -0.0496,0 -0.0331,0 -0.0664,0.004 -0.0992,0 -0.0338,-0.004 -0.0653,-0.021 -0.0992,-0.0248 -0.13916,-0.0154 -0.1109,0.008 -0.2479,0.0248 -0.0246,0.003 -0.0496,0 -0.0744,0 -0.0331,0 -0.0661,0 -0.0992,0 -0.008,0 -0.0248,0.008 -0.0248,0 0,-0.008 0.0165,0 0.0248,0 0.0165,0 0.0331,0 0.0496,0 0.0496,0 0.0992,0 0.14874,0 0.18179,0 0.36359,0 0.54538,0 0.1818,0 0.36359,0 0.54539,0 0.0248,0 0.0496,0 0.0744,0 0.008,0 0.0248,-0.008 0.0248,0 0,0.008 -0.0165,0 -0.0248,0 -0.0413,0 -0.0826,0 -0.12395,0 -0.0579,0 -0.11569,0 -0.17354,0 -0.0578,0 -0.11583,0.004 -0.17353,0 -0.0583,-0.004 -0.11527,-0.0203 -0.17353,-0.0248 -0.0494,-0.004 -0.0992,0 -0.14874,0 -0.0826,0 -0.16527,0 -0.2479,0 -0.008,0 -0.0248,0.008 -0.0248,0 0,-0.008 0.0165,0 0.0248,0 0.0165,0 0.0331,0 0.0496,0 0.0744,0 0.14874,0 0.22311,0 0.0496,0 0.0992,0 0.14874,0 0.008,0 0.0248,-0.008 0.0248,0 0,0.008 -0.0168,-0.002 -0.0248,0 -0.0253,0.006 -0.0485,0.0211 -0.0744,0.0248 -0.13497,0.0193 -0.0578,-0.0145 -0.17353,0 -0.0418,0.005 -0.0821,0.0196 -0.12395,0.0248 -0.0847,0.0106 -0.0583,-0.019 -0.12395,0.0248 -0.01,0.006 -0.0143,0.0195 -0.0248,0.0248 -0.007,0.004 -0.0248,-0.008 -0.0248,0 0,0.074 0.0191,0.0419 0.0496,0.0496 0.0253,0.006 0.051,0.0131 0.0744,0.0248 0.12476,0.0624 0.0268,0.0563 0.19833,0.0992 0.0241,0.006 0.0522,-0.0111 0.0744,0 0.0314,0.0157 0.0452,0.0549 0.0744,0.0744 0.0217,0.0145 0.0526,0.0103 0.0744,0.0248 0.007,0.005 0.006,0.019 0,0.0248 -0.0131,0.0131 -0.0326,0.0175 -0.0496,0.0248 -0.0409,0.0175 -0.0813,0.0368 -0.12395,0.0496 -0.0471,0.0141 -0.23286,0.0423 -0.27269,0.0496 -0.16309,0.0297 -0.0731,0.0248 -0.19833,0.0248 -0.0248,0 -0.0503,-0.006 -0.0744,0 -0.0113,0.003 -0.0248,0.0131 -0.0248,0.0248 0,0.008 0.0165,0 0.0248,0 0.0165,0 0.0331,0 0.0496,0 0.10743,0 0.21485,0 0.32228,0 0.0165,0 0.0331,0 0.0496,0 0.008,0 0.0248,-0.008 0.0248,0 0,0.008 -0.0166,0.001 -0.0248,0 -0.0416,-0.007 -0.0821,-0.0195 -0.12396,-0.0248 -0.0246,-0.003 -0.0496,0 -0.0744,0 -0.0331,0 -0.0661,0 -0.0992,0 -0.0165,0 -0.0331,0 -0.0496,0 -0.0165,0 -0.0348,-0.007 -0.0496,0 -0.007,0.004 -0.007,0.0211 0,0.0248 0.0148,0.007 0.0331,0 0.0496,0 0.0331,0 0.0661,0 0.0992,0 0.11569,0 0.23138,0 0.34707,0 0.0496,0 0.0992,0 0.14874,0 0.008,0 0.0331,0 0.0248,0 -0.0248,0 -0.0496,0 -0.0744,0 -0.0331,0 -0.0663,-0.004 -0.0992,0 -0.0838,0.009 -0.16405,0.0412 -0.2479,0.0496 -0.20383,0.0204 -0.0472,-0.0316 -0.2727,0.0248 -0.0179,0.004 -0.032,0.0189 -0.0496,0.0248 -0.0148,0.005 -0.0496,-0.0128 -0.0496,0.0248 0,0.008 0.0165,0 0.0248,0 0.0496,0 0.0992,0 0.14875,0 0.157,0 0.314,0 0.47101,0 0.0496,0 0.0993,-0.004 0.14874,0 0.0583,0.004 0.1159,0.0152 0.17353,0.0248 0.0416,0.007 0.0831,0.0146 0.12395,0.0248 0.0261,0.007 0.0824,0.0161 0.0992,0.0496 0.0169,0.0337 -0.0303,0.0424 -0.0496,0.0496 -0.0489,0.0184 -0.0972,0.041 -0.14874,0.0496 -0.0489,0.008 -0.1,-0.009 -0.14874,0 -0.0438,0.008 -0.0808,0.0388 -0.12395,0.0496 -0.0567,0.0142 -0.1164,0.0125 -0.17353,0.0248 -0.0588,0.0126 -0.11517,0.035 -0.17353,0.0496 -0.0566,0.0142 -0.14166,0.0212 -0.19832,0.0496 -0.0105,0.005 -0.0143,0.0196 -0.0248,0.0248 -0.007,0.004 -0.0331,0 -0.0248,0 0.19006,0 0.38012,0 0.57018,0 0.21445,0 -0.003,-0.0104 0.17353,0.0248 0.0162,0.003 0.0379,-0.0117 0.0496,0 0.008,0.008 -0.0133,0.0225 -0.0248,0.0248 -0.0482,0.01 -0.12292,-0.007 -0.17353,0 -0.0337,0.005 -0.0653,0.021 -0.0992,0.0248 -0.0411,0.005 -0.0826,0 -0.12395,0 -0.0579,0 -0.11569,0 -0.17353,0 -0.0331,0 -0.0666,-0.005 -0.0992,0 -0.17091,0.0285 0.0198,0.0248 -0.0744,0.0248 -0.008,0 -0.0189,-0.006 -0.0248,0 -0.006,0.006 -0.008,0.0222 0,0.0248 0.0235,0.008 0.0496,0 0.0744,0 0.0248,0 0.0496,0 0.0744,0 0.29069,0 -0.0701,0.006 0.29748,-0.0248 0.0412,-0.003 0.0826,0 0.12396,0 0.0578,0 0.11568,0 0.17353,0 0.0331,0 0.0661,0 0.0992,0 0.0165,0 0.0331,0 0.0496,0 0.008,0 0.0306,0.006 0.0248,0 -0.0484,-0.0484 -0.15337,-0.021 -0.19832,-0.0248 -0.0501,-0.004 -0.0986,-0.0212 -0.14874,-0.0248 -0.0659,-0.005 -0.13222,0 -0.19832,0 -0.12395,0 -0.24791,0 -0.37186,0 -0.0578,0 -0.11569,0 -0.17353,0 -0.0248,0 -0.0496,0 -0.0744,0 -0.008,0 -0.0248,0.008 -0.0248,0 0,-0.008 0.0165,0 0.0248,0 0.0165,0 0.0334,0.003 0.0496,0 0.0256,-0.005 0.0489,-0.0191 0.0744,-0.0248 0.0491,-0.0109 0.0992,-0.0165 0.14874,-0.0248 0.0653,-0.0109 0.26304,-0.045 0.32228,-0.0496 0.0494,-0.004 0.0992,0 0.14874,0 0.0902,0 0.12261,0.0131 0.19832,-0.0248 0.007,-0.004 -0.0165,0 -0.0248,0 -0.0331,0 -0.0661,0 -0.0992,0 -0.0579,0 -0.11569,0 -0.17354,0 -0.0331,0 -0.0661,0 -0.0992,0 -0.0496,0 -0.0994,-0.005 -0.14874,0 -0.32807,0.0328 0.12587,0.0248 -0.19832,0.0248 -0.008,0 -0.0165,0 -0.0248,0 -0.01,0 -0.0744,-0.0117 -0.0744,0.0248 0,0.008 0.0165,0 0.0248,0 0.0165,0 0.0334,-0.003 0.0496,0 0.0256,0.005 0.0496,0.0165 0.0744,0.0248 0.0413,0 0.0829,-0.005 0.12395,0 0.0259,0.003 0.0492,0.0176 0.0744,0.0248 0.0328,0.009 0.0657,0.0181 0.0992,0.0248 0.008,0.002 0.0165,0 0.0248,0 0.008,0 0.0248,-0.008 0.0248,0 0,0.008 -0.0165,0 -0.0248,0 -0.0248,0 -0.0498,-0.004 -0.0744,0 -0.0337,0.005 -0.0653,0.0206 -0.0992,0.0248 -0.0328,0.004 -0.0661,0 -0.0992,0 -0.0248,0 -0.0496,0 -0.0744,0 -0.0331,0 -0.0664,-0.005 -0.0992,0 -0.0259,0.004 -0.0488,0.0197 -0.0744,0.0248 -0.0162,0.003 -0.0348,-0.007 -0.0496,0 -0.007,0.004 -0.007,0.0211 0,0.0248 0.0148,0.007 0.0331,0 0.0496,0 0.0909,0 0.18179,0 0.27269,0 0.0248,0 0.0496,0 0.0744,0 0.008,0 0.019,-0.006 0.0248,0 0.006,0.006 0.007,0.0211 0,0.0248 -0.0148,0.007 -0.0335,-0.004 -0.0496,0 -0.0179,0.004 -0.0315,0.0212 -0.0496,0.0248 -0.0243,0.005 -0.0496,0 -0.0744,0 -0.0331,0 -0.0661,0 -0.0992,0 -0.0305,0 -0.0459,-0.004 -0.0744,0.0248 -0.006,0.006 0.0165,0 0.0248,0 0.0165,0 0.0335,0.004 0.0496,0 0.0179,-0.004 0.0315,-0.0212 0.0496,-0.0248 0.1159,-0.0232 0.0346,0.0323 0.14874,-0.0248 0.007,-0.004 -0.0165,0 -0.0248,0 -0.0165,0 -0.0331,0 -0.0496,0 -0.0579,0 -0.11569,0 -0.17354,0 -0.008,0 -0.0248,0.008 -0.0248,0 0,-0.008 0.0165,0 0.0248,0 0.0165,0 0.0335,0.004 0.0496,0 0.0179,-0.004 0.0317,-0.0203 0.0496,-0.0248 0.016,-0.004 0.0331,0 0.0496,0 0.008,0 0.0306,0.006 0.0248,0 -0.0131,-0.0131 -0.0324,-0.0179 -0.0496,-0.0248 -0.0243,-0.01 -0.0486,-0.0205 -0.0744,-0.0248 -0.0245,-0.004 -0.0496,0 -0.0744,0 -0.0165,0 -0.0331,0 -0.0496,0 -0.008,0 -0.0165,0 -0.0248,0 -0.008,0 -0.0189,0.006 -0.0248,0 -0.006,-0.006 -0.007,-0.0211 0,-0.0248 0.0148,-0.007 0.0333,0.003 0.0496,0 0.19108,-0.0318 0.003,-0.022 0.22312,-0.0496 0.0246,-0.003 0.0496,0 0.0744,0 0.0165,0 0.0331,0 0.0496,0 0.008,0 0.0331,0 0.0248,0 -0.0331,0 -0.0661,0 -0.0992,0 -0.0496,0 -0.0994,0.004 -0.14875,0 -0.042,-0.004 -0.082,-0.0213 -0.12395,-0.0248 -0.0576,-0.005 -0.11568,0 -0.17353,0 -0.0331,0 -0.0664,-0.005 -0.0992,0 -0.21011,0.03 0.0277,0.0248 -0.12395,0.0248 -0.008,0 0.0165,0 0.0248,0 0.008,0 0.0165,0 0.0248,0 0.13176,0 0.0355,0.004 0.22311,-0.0248 0.0578,-0.009 0.11534,-0.0195 0.17354,-0.0248 0.0329,-0.003 0.0661,0 0.0992,0 0.0578,0 0.11568,0 0.17353,0 0.0496,0 0.0994,0.005 0.14874,0 0.0339,-0.003 0.0668,-0.014 0.0992,-0.0248 0.0175,-0.006 0.032,-0.0189 0.0496,-0.0248 0.008,-0.003 0.0331,0 0.0248,0 -0.0992,0 -0.19832,0 -0.29748,0 -0.008,0 -0.0165,0 -0.0248,0 -0.008,0 -0.0248,0.008 -0.0248,0 0,-0.0117 0.0165,-0.0165 0.0248,-0.0248 0.008,-0.008 0.0137,-0.0211 0.0248,-0.0248 0.0157,-0.005 0.0496,0.0165 0.0496,0 0,-0.0185 -0.0324,-0.0179 -0.0496,-0.0248 -0.0243,-0.01 -0.0487,-0.0196 -0.0744,-0.0248 -0.0162,-0.003 -0.0331,0 -0.0496,0 -0.008,0 -0.0331,0 -0.0248,0 0.0165,0 0.0331,0 0.0496,0 0.0165,0 0.0333,0.003 0.0496,0 0.0336,-0.006 0.0664,-0.0154 0.0992,-0.0248 0.0251,-0.007 0.0486,-0.0205 0.0744,-0.0248 0.0245,-0.004 0.0496,0 0.0744,0 0.008,0 0.0165,0 0.0248,0 0.0165,0 0.0496,0.0165 0.0496,0 0,-0.0185 -0.0314,-0.0217 -0.0496,-0.0248 -0.0326,-0.005 -0.0661,0 -0.0992,0 -0.0661,0 -0.13221,0 -0.19832,0 -0.0331,0 -0.0661,0 -0.0992,0 -0.0413,0 -0.0826,0 -0.12395,0 -0.008,0 -0.0248,0.008 -0.0248,0 0,-0.008 0.0165,0 0.0248,0 0.0248,0 0.0496,0 0.0744,0 0.0413,0 0.0828,-0.004 0.12395,0 0.0501,0.005 0.0988,0.0189 0.14874,0.0248 0.0907,0.0107 0.18188,0.0157 0.27269,0.0248 0.0745,0.007 0.14866,0.0174 0.22312,0.0248 0.0908,0.009 0.18243,0.0113 0.27269,0.0248 0.0753,0.0113 0.14752,0.0401 0.22311,0.0496 0.0574,0.007 0.11569,0 0.17353,0 0.0165,0 0.0331,0 0.0496,0 0.008,0 0.0331,0 0.0248,0 -0.0906,0 -0.0192,-0.004 -0.14874,0.0248 -0.0411,0.009 -0.0836,0.0127 -0.12395,0.0248 -0.0426,0.0128 -0.081,0.0379 -0.12395,0.0496 -0.40107,0.10938 0.0549,-0.0554 -0.2479,0.0744 -0.0761,0.0326 -0.0689,0.0248 -0.14874,0.0248 -0.008,0 -0.0248,-0.008 -0.0248,0 0,0.0365 0.0647,0.0248 0.0744,0.0248 0.0331,0 0.0165,0 0.0496,0 0.0165,0 0.0496,-0.0165 0.0496,0 0,0.0185 -0.0313,0.0222 -0.0496,0.0248 -0.0409,0.006 -0.0828,-0.004 -0.12395,0 -0.0419,0.004 -0.0821,0.0201 -0.12395,0.0248 -0.0329,0.004 -0.0661,0 -0.0992,0 -0.0826,0 -0.16527,0 -0.24791,0 -0.008,0 0.017,0.003 0.0248,0 0.0175,-0.006 0.0317,-0.0203 0.0496,-0.0248 0.016,-0.004 0.0331,0 0.0496,0 0.008,0 0.0165,0 0.0248,0"
       id="path1271"
       inkscape:connector-curvature="0" />
    <path
       style="fill:none;stroke:#000000;stroke-width:0.26458332px;stroke-linecap:butt;stroke-linejoin:miter;stroke-opacity:1"
       d="m 169.01968,184.72567 c -0.0826,-0.0332 -0.15974,-0.087 -0.24788,-0.0997 -0.0366,-0.005 -0.0641,0.0379 -0.0992,0.0496 -0.0157,0.005 -0.0334,-0.003 -0.0496,0 -0.0256,0.005 -0.0496,0.0165 -0.0744,0.0248 -0.0248,0.008 -0.0501,0.0151 -0.0744,0.0248 -0.0171,0.007 -0.032,0.0189 -0.0496,0.0248 -0.008,0.003 -0.0165,0 -0.0248,0 -0.008,0 -0.0189,-0.006 -0.0248,0 -0.006,0.006 -0.007,0.0202 0,0.0248 0.0635,0.0423 0.10162,0.0158 0.17353,0.0248 0.0338,0.004 0.0653,0.0214 0.0992,0.0248 0.0493,0.005 0.0992,0 0.14874,0 0.12823,0 0.15964,0.006 0.29749,-0.0248 0.018,-0.004 0.0317,-0.0203 0.0496,-0.0248 0.016,-0.004 0.0649,0.006 0.0496,0 -0.2389,-0.0945 -0.12805,-0.053 -0.34707,0.0744 -0.14746,0.0857 -0.0932,0.0302 -0.2479,0.0496 -0.0259,0.003 -0.0486,0.0205 -0.0744,0.0248 -0.0245,0.004 -0.0508,-0.008 -0.0744,0 -0.008,0.003 0.006,0.019 0,0.0248 -0.006,0.006 -0.0248,0.008 -0.0248,0 0,-0.008 0.017,0.003 0.0248,0 0.0175,-0.006 0.0365,-0.0117 0.0496,-0.0248 0.006,-0.006 0.006,-0.0189 0,-0.0248 -0.006,-0.006 -0.017,0.003 -0.0248,0 -0.0175,-0.006 -0.0331,-0.0165 -0.0496,-0.0248 -0.0165,-0.008 -0.0315,-0.0212 -0.0496,-0.0248 -0.0243,-0.005 -0.0496,0 -0.0744,0 -0.008,0 -0.017,0.003 -0.0248,0 -0.0175,-0.006 -0.032,-0.019 -0.0496,-0.0248 -0.008,-0.003 -0.0189,0.006 -0.0248,0 -0.006,-0.006 -0.006,-0.019 0,-0.0248 0.006,-0.006 0.0174,0.004 0.0248,0 0.11129,-0.0556 -0.1911,-0.0187 0.14875,-0.0496 0.0494,-0.005 0.0994,0.004 0.14874,0 0.042,-0.004 0.082,-0.0213 0.12395,-0.0248 0.0576,-0.005 0.11568,0 0.17353,0 0.0331,0 0.0661,-9e-5 0.0992,0 0.22892,5.3e-4 -0.0542,0.001 0.2479,0 0.008,-2e-5 0.0165,0 0.0248,0 0.008,0 0.0189,0.006 0.0248,0 0.006,-0.006 -0.006,-0.0189 0,-0.0248 0.006,-0.006 0.0174,0.004 0.0248,0 0.0105,-0.005 0.0151,-0.0183 0.0248,-0.0248 0.0154,-0.0102 0.0342,-0.0146 0.0496,-0.0248 0.0567,-0.0378 -0.0155,-0.0196 0.0744,-0.0496 0.005,-0.002 0.0459,0.002 0.0496,0 0.0105,-0.005 0.0143,-0.0195 0.0248,-0.0248 0.007,-0.004 0.0189,0.006 0.0248,0 0.006,-0.006 -0.006,-0.0189 0,-0.0248 0.006,-0.006 0.0189,0.006 0.0248,0 0.006,-0.006 -0.006,-0.0189 0,-0.0248 0.006,-0.006 0.0189,0.006 0.0248,0 0.006,-0.006 -0.006,-0.0189 0,-0.0248 0.0131,-0.0131 0.0342,-0.0145 0.0496,-0.0248 0.01,-0.006 0.0143,-0.0196 0.0248,-0.0248 0.0264,-0.0132 0.0231,0.0132 0.0496,0 0.0104,-0.005 0.0151,-0.0183 0.0248,-0.0248 0.0154,-0.0102 0.0342,-0.0145 0.0496,-0.0248 0.01,-0.006 0.0137,-0.0211 0.0248,-0.0248 0.0157,-0.005 0.0331,0 0.0496,0 0.008,0 0.0165,0 0.0248,0 0.0581,0 -0.0117,0.006 0.0496,-0.0248 0.007,-0.004 0.0189,0.006 0.0248,0 0.006,-0.006 -0.006,-0.0189 0,-0.0248 0.006,-0.006 0.0165,0 0.0248,0 0.0248,0 0.0496,0 0.0744,0 0.008,0 0.0165,0 0.0248,0 0.008,0 0.0189,-0.006 0.0248,0 0.006,0.006 -0.003,0.017 0,0.0248 0.006,0.0175 0.0189,0.0321 0.0248,0.0496 0.003,0.008 -0.006,0.019 0,0.0248 0.006,0.006 0.0189,0.006 0.0248,0 0.006,-0.006 -0.004,-0.0174 0,-0.0248 0.005,-0.0104 0.0196,-0.0143 0.0248,-0.0248 0.004,-0.007 0,-0.0165 0,-0.0248 0,-0.0165 0.004,-0.0335 0,-0.0496 -0.004,-0.0179 -0.0189,-0.032 -0.0248,-0.0496 -0.003,-0.008 -0.006,-0.0189 0,-0.0248 0.0194,-0.0194 0.0431,0.0216 0.0496,0.0248 0.007,0.004 0.0248,-0.008 0.0248,0 0,0.008 -0.0165,0 -0.0248,0 -0.008,0 -0.0165,0 -0.0248,0 -0.008,0 -0.017,0.003 -0.0248,0 -0.11156,-0.0372 0.0248,-0.0248 -0.14874,-0.0744 -0.0238,-0.007 -0.0531,0.0128 -0.0744,0 -0.0256,-0.0153 -0.0285,-0.0533 -0.0496,-0.0744 -0.0131,-0.0131 -0.0342,-0.0146 -0.0496,-0.0248 -0.01,-0.006 -0.0165,-0.0165 -0.0248,-0.0248 -0.008,-0.008 -0.0195,-0.0143 -0.0248,-0.0248 -0.004,-0.007 0.006,-0.0189 0,-0.0248 -0.006,-0.006 -0.0189,0.006 -0.0248,0 -0.006,-0.006 -0.008,-0.0248 0,-0.0248 0.008,0 -0.006,0.0189 0,0.0248 0.006,0.006 0.0165,0 0.0248,0 0.0744,0 0.14874,0 0.22312,0 0.0744,0 0.14874,0 0.22311,0 0.0165,0 0.0348,-0.007 0.0496,0 0.007,0.004 0,0.0165 0,0.0248 0,0.008 0,0.0165 0,0.0248 0,0.0496 0,0.0992 0,0.14874 0,0.008 0,0.0165 0,0.0248 0,0.008 0.006,0.0189 0,0.0248 -0.006,0.006 -0.0165,0 -0.0248,0 -0.008,0 -0.0189,0.006 -0.0248,0 -0.006,-0.006 0.006,-0.0189 0,-0.0248 -0.0513,-0.0513 0.002,0.0784 -0.0496,-0.0248 -0.004,-0.007 -0.008,-0.0248 0,-0.0248 0.008,0 0,0.0165 0,0.0248 0,0.0248 0,0.0496 0,0.0744 0,0.0165 0,0.0331 0,0.0496 0,0.0379 -0.003,0.0581 0.0248,0.0992 0.005,0.007 0.0189,-0.006 0.0248,0 0.006,0.006 0,0.0331 0,0.0248 0,-0.0165 0.005,-0.0339 0,-0.0496 -0.004,-0.0111 -0.0183,-0.0151 -0.0248,-0.0248 -0.0102,-0.0154 -0.0153,-0.0337 -0.0248,-0.0496 -0.0153,-0.0256 -0.0362,-0.0477 -0.0496,-0.0744 -0.1185,-0.237 0.0709,0.0697 -0.0744,-0.12395 -0.0111,-0.0148 -0.0137,-0.0348 -0.0248,-0.0496 -0.014,-0.0187 -0.0366,-0.0301 -0.0496,-0.0496 -0.005,-0.007 -0.008,-0.0248 0,-0.0248 0.008,0 -0.004,0.0174 0,0.0248 0.005,0.0105 0.0196,0.0143 0.0248,0.0248 0.0117,0.0234 0.0131,0.051 0.0248,0.0744 0.0607,0.12133 0.03,0.0317 0.0992,0.12395 0.0111,0.0148 0.0137,0.0348 0.0248,0.0496 0.014,0.0187 0.0331,0.0331 0.0496,0.0496 0.008,0.008 0.0165,0.0165 0.0248,0.0248 0.008,0.008 0.0195,0.0143 0.0248,0.0248 0.004,0.007 0.008,0.0248 0,0.0248 -0.008,0 0,-0.0165 0,-0.0248 0,-0.0165 0.007,-0.0348 0,-0.0496 -0.0105,-0.0209 -0.0356,-0.0309 -0.0496,-0.0496 -0.0222,-0.0296 -0.0274,-0.0696 -0.0496,-0.0992 -0.16444,-0.16444 0.0234,0.0468 -0.0496,-0.0992 -0.004,-0.007 -0.0248,-0.008 -0.0248,0 0,0.0551 0.0413,0.0523 0.0744,0.0744 0.01,0.006 0.0165,0.0165 0.0248,0.0248 0.0248,0.0248 0.0496,0.0496 0.0744,0.0744 0.008,0.008 0.0143,0.0195 0.0248,0.0248 0.0234,0.0117 0.0482,0.0248 0.0744,0.0248 0.008,0 0,-0.0165 0,-0.0248 0,-0.008 0,-0.0165 0,-0.0248 0,-0.008 0.006,-0.019 0,-0.0248 -0.006,-0.006 -0.0189,-0.006 -0.0248,0 -0.006,0.006 0,0.0165 0,0.0248 0,0.008 0.003,0.017 0,0.0248 -0.006,0.0175 -0.0203,0.0316 -0.0248,0.0496 -0.004,0.016 0.007,0.0348 0,0.0496 -0.004,0.007 -0.0165,0 -0.0248,0 -0.008,0 -0.0189,0.006 -0.0248,0 -0.006,-0.006 0.003,-0.017 0,-0.0248 -0.006,-0.0175 -0.0153,-0.0337 -0.0248,-0.0496 -0.0153,-0.0256 -0.0402,-0.0461 -0.0496,-0.0744 0,-0.17582 0.0175,-0.0145 -0.0248,-0.0992 -0.004,-0.007 0,-0.0165 0,-0.0248 0,-0.008 -0.008,-0.0248 0,-0.0248 0.008,0 0,0.0331 0,0.0248 0,-0.0165 0,-0.0331 0,-0.0496 0,-0.008 0.004,-0.0174 0,-0.0248 -0.005,-0.0104 -0.0211,-0.0137 -0.0248,-0.0248 -0.005,-0.0157 0.004,-0.0335 0,-0.0496 -0.004,-0.0179 -0.0203,-0.0317 -0.0248,-0.0496 -0.004,-0.016 0.004,-0.0336 0,-0.0496 -0.009,-0.0358 -0.0406,-0.0633 -0.0496,-0.0992 -0.004,-0.016 0,-0.0331 0,-0.0496 0,-0.008 0,-0.0165 0,-0.0248 0,-0.008 0.006,-0.0189 0,-0.0248 -0.0397,-0.0397 -0.0195,0.0496 -0.0248,0.0496 -0.008,0 0,-0.0165 0,-0.0248 0,-0.0798 0.006,0.0423 -0.0248,-0.0496 -0.005,-0.0157 0,-0.0331 0,-0.0496 0,-0.0165 0,-0.0331 0,-0.0496 0,-0.0165 0,-0.0331 0,-0.0496 0,-0.008 0,-0.0331 0,-0.0248 0,0.16444 -0.0117,-0.0351 0.0248,0.0744 0.003,0.01 -0.014,0.0744 0.0248,0.0744 0.008,0 0,-0.0165 0,-0.0248 0,-0.008 0,-0.0165 0,-0.0248 0,-0.0578 0,-0.11569 0,-0.17353 0,-0.0165 0,-0.0331 0,-0.0496 0,-0.008 0.004,-0.0174 0,-0.0248 -0.005,-0.0104 -0.0229,-0.0363 -0.0248,-0.0248 -0.009,0.0571 2.7e-4,0.11574 5.3e-4,0.17361"
       id="path1273"
       inkscape:connector-curvature="0" />
    <path
       style="fill:none;stroke:#000000;stroke-width:0.26458332px;stroke-linecap:butt;stroke-linejoin:miter;stroke-opacity:1"
       d="m 112.20052,189.78231 c 0,-0.0496 0,-0.0992 0,-0.14874 0,-0.008 -0.006,-0.0189 0,-0.0248 0.006,-0.006 0.0174,0.004 0.0248,0 0.0105,-0.005 0.0165,-0.0165 0.0248,-0.0248 0.008,-0.008 0.0196,-0.0143 0.0248,-0.0248 0.004,-0.007 -0.006,-0.0189 0,-0.0248 0.0131,-0.0131 0.0365,-0.0117 0.0496,-0.0248 0.006,-0.006 0.006,-0.0189 0,-0.0248 -0.006,-0.006 -0.0165,0 -0.0248,0 -0.0165,0 -0.0333,0.003 -0.0496,0 -0.0336,-0.006 -0.0654,-0.02 -0.0992,-0.0248 -0.0246,-0.004 -0.0496,0 -0.0744,0 -0.0744,0 -0.14874,0 -0.22311,0 -0.008,0 0.0189,0.006 0.0248,0 0.006,-0.006 -0.006,-0.0189 0,-0.0248 0.0211,-0.0211 0.0553,-0.0267 0.0744,-0.0496 0.0237,-0.0284 0.0234,-0.073 0.0496,-0.0992 0.0117,-0.0117 0.0339,0.005 0.0496,0 0.0111,-0.004 0.0331,-0.0165 0.0248,-0.0248 -0.0117,-0.0117 -0.0331,0 -0.0496,0 -0.008,0 -0.0189,-0.006 -0.0248,0 -0.006,0.006 -0.008,0.0222 0,0.0248 0.0235,0.008 0.0501,0.005 0.0744,0 0.0181,-0.004 0.032,-0.0189 0.0496,-0.0248 0.008,-0.003 0.0165,0 0.0248,0 0.0165,0 0.0422,-0.0148 0.0496,0 0.008,0.0165 -0.019,0.032 -0.0248,0.0496 -0.003,0.008 0.006,0.0189 0,0.0248 -0.006,0.006 -0.019,-0.006 -0.0248,0 -0.006,0.006 0,0.0165 0,0.0248 -0.0165,0.0165 -0.0287,0.0391 -0.0496,0.0496 -0.0148,0.007 -0.0348,-0.007 -0.0496,0 -0.007,0.004 0.004,0.0174 0,0.0248 -0.005,0.0105 -0.033,0.0165 -0.0248,0.0248 0.0117,0.0117 0.0331,0 0.0496,0 0.13222,0 0.26443,0 0.39665,0 0.008,0 0.0165,0 0.0248,0 0.022,0 0.0358,-0.008 0.0248,0.0248 -0.0331,0.0992 -0.008,0.008 -0.0744,0.0744 -0.006,0.006 0.006,0.0189 0,0.0248 -0.006,0.006 -0.019,-0.006 -0.0248,0 -0.057,0.057 -0.0305,0.0496 0,0.0496 0.008,0 0.0165,0 0.0248,0 0.008,0 0.0248,-0.008 0.0248,0 0,0.008 -0.017,-0.003 -0.0248,0 -0.0175,0.006 -0.0331,0.0165 -0.0496,0.0248 -0.0165,0.008 -0.0315,0.0212 -0.0496,0.0248 -0.0243,0.005 -0.0538,-0.0138 -0.0744,0 -0.0344,0.0229 -0.10875,0.0762 -0.0744,0.0992 0.0435,0.029 0.0992,-0.0331 0.14874,-0.0496 0.10573,-0.0352 0.0482,-0.0248 0.17353,-0.0248 0.0165,0 0.0331,0 0.0496,0 0.0165,0 0.0661,0 0.0496,0 -0.0331,0 -0.0666,-0.005 -0.0992,0 -0.0182,0.003 -0.0331,0.0165 -0.0496,0.0248 -0.0165,0.008 -0.0331,0.0165 -0.0496,0.0248 -0.0165,0.008 -0.0321,0.0189 -0.0496,0.0248 -0.008,0.003 -0.0248,0.008 -0.0248,0 0,-0.008 0.0165,0 0.0248,0 0.0496,0 0.0992,0 0.14874,0 0.008,0 -0.0189,-0.006 -0.0248,0 -0.006,0.006 0.007,0.0211 0,0.0248 -0.0148,0.007 -0.0335,-0.004 -0.0496,0 -0.04,0.01 -0.0492,0.0244 -0.0744,0.0496 -0.008,0.008 -0.0353,0.0196 -0.0248,0.0248 0.0222,0.0111 0.0496,0 0.0744,0 0.0248,0 0.0501,0.005 0.0744,0 0.0181,-0.004 0.0317,-0.0203 0.0496,-0.0248 0.016,-0.004 0.0331,0 0.0496,0 0.0165,0 0.033,0 0.0496,0 0.008,0 -0.0165,0 -0.0248,0 -0.008,0 -0.0165,0 -0.0248,0 -0.0368,0 -0.0683,-0.006 -0.0992,0.0248 -0.006,0.006 -0.006,0.0189 0,0.0248 0.006,0.006 0.0165,0 0.0248,0 0.0826,0 0.16527,0 0.24791,0 0.008,0 0.0189,-0.006 0.0248,0 0.006,0.006 0.006,0.0189 0,0.0248 -0.0322,0.0322 -0.0599,0.0248 -0.0992,0.0248 -0.008,0 -0.017,-0.003 -0.0248,0 -0.0175,0.006 -0.0342,0.0146 -0.0496,0.0248 -0.01,0.006 -0.0331,0.0165 -0.0248,0.0248 0.0117,0.0117 0.0331,0 0.0496,0 0.0662,0 0.033,0 0.0992,0 0.0165,0 0.0348,-0.007 0.0496,0 0.007,0.004 0.006,0.019 0,0.0248 -0.0131,0.0131 -0.032,0.0189 -0.0496,0.0248 -0.008,0.003 -0.0248,0.008 -0.0248,0 0,-0.008 0.0165,0 0.0248,0 0.0165,0 0.0331,0 0.0496,0 0.0413,0 0.0826,0 0.12395,0 0.0165,0 0.0348,-0.007 0.0496,0 0.0148,0.007 -0.005,0.0398 -0.0248,0.0496 -0.007,0.004 -0.0165,0 -0.0248,0 -0.0165,0 -0.0348,-0.007 -0.0496,0 -0.007,0.004 0,0.0165 0,0.0248 0,0.008 -0.006,0.0189 0,0.0248 0.006,0.006 0.0165,0 0.0248,0 0.0165,0 0.0379,-0.0117 0.0496,0 0.008,0.008 -0.0137,0.0211 -0.0248,0.0248 -0.0157,0.005 -0.0339,-0.005 -0.0496,0 -0.0111,0.004 -0.0143,0.0196 -0.0248,0.0248 -0.0611,0.0305 0.0224,-0.072 -0.0744,0.0248 -0.006,0.006 0.0165,0 0.0248,0 0.008,0 0.0165,0 0.0248,0 0.23725,0 -0.0554,-0.0111 0.12395,0.0248 0.0243,0.005 0.0496,0 0.0744,0 0.008,0 0.0189,-0.006 0.0248,0 0.006,0.006 -0.006,0.0189 0,0.0248 0.006,0.006 0.0248,-0.008 0.0248,0 0,0.054 -0.0992,-0.004 -0.0992,0.0496 0,0.008 0.0165,0 0.0248,0 0.0248,0 0.0496,0 0.0744,0 0.008,0 0.0331,0 0.0248,0 -0.23725,0 0.0554,-0.0111 -0.12395,0.0248 -0.0243,0.005 -0.0501,-0.005 -0.0744,0 -0.14243,0.0285 0.007,0.0248 -0.0744,0.0248 -0.008,0 -0.0331,0 -0.0248,0 0.11569,0 0.23137,0 0.34706,0 0.0331,0 0.0661,0 0.0992,0 0.008,0 0.0165,0 0.0248,0 0.008,0 0.0331,0 0.0248,0 -0.0413,0 -0.0826,0 -0.12396,0 -0.0248,0 -0.0503,-0.006 -0.0744,0 -0.0113,0.003 -0.0165,0.0165 -0.0248,0.0248 -0.008,0.008 -0.0331,0.0165 -0.0248,0.0248 0.0117,0.0117 0.0331,0 0.0496,0 0.10743,0 0.21485,0 0.32228,0 0.0165,0 0.0496,-0.0165 0.0496,0 0,0.0185 -0.0317,0.0203 -0.0496,0.0248 -0.016,0.004 -0.0331,0 -0.0496,0 -0.0248,0 -0.0501,-0.005 -0.0744,0 -0.0181,0.004 -0.0324,0.0179 -0.0496,0.0248 -0.0243,0.01 -0.0501,0.0151 -0.0744,0.0248 -0.0171,0.007 -0.032,0.0189 -0.0496,0.0248 -0.008,0.003 -0.0331,0 -0.0248,0 0.0992,0 0.19832,0 0.29748,0 0.0248,0 0.0496,0 0.0744,0 0.0165,0 0.0348,-0.007 0.0496,0 0.007,0.004 0.006,0.0189 0,0.0248 -0.006,0.006 -0.0168,-0.002 -0.0248,0 -0.0254,0.006 -0.0492,0.0176 -0.0744,0.0248 -0.0331,0.008 -0.0661,0.0165 -0.0992,0.0248 -0.008,0.008 -0.0139,0.0205 -0.0248,0.0248 -0.0907,0.0363 -0.083,0.006 -0.14874,0.0496 -0.01,0.006 -0.0331,0.0165 -0.0248,0.0248 0.0117,0.0117 0.0331,0 0.0496,0 0.0248,0 0.0496,0 0.0744,0 0.0248,0 0.0499,0.004 0.0744,0 0.0258,-0.004 0.0485,-0.0211 0.0744,-0.0248 0.0327,-0.005 0.0661,0 0.0992,0 0.0413,0 0.0826,0 0.12395,0 0.008,0 -0.0165,0 -0.0248,0 -0.0496,0 -0.003,-0.004 -0.0744,0.0248 -0.0243,0.01 -0.0501,0.0151 -0.0744,0.0248 -0.0171,0.007 -0.0324,0.0179 -0.0496,0.0248 -0.002,5.3e-4 -0.14812,0.0493 -0.14874,0.0496 -0.007,0.004 0.0165,0 0.0248,0 0.0331,0 0.0661,0 0.0992,0 0.0496,0 0.0992,0 0.14874,0 0.008,0 0.0165,0 0.0248,0 0.008,0 0.0248,-0.008 0.0248,0 0,0.008 -0.0174,-0.004 -0.0248,0 -0.0105,0.005 -0.0143,0.0196 -0.0248,0.0248 -0.0234,0.0117 -0.0501,0.0151 -0.0744,0.0248 -0.0171,0.007 -0.0315,0.0212 -0.0496,0.0248 -0.17005,0.034 0.0225,-0.0437 -0.14874,0.0248 -0.0171,0.007 -0.0496,0.006 -0.0496,0.0248 0,0.0165 0.033,0 0.0496,0 0.0909,0 0.1818,0 0.27269,0 0.008,0 0.0165,0 0.0248,0 0.008,0 0.0248,-0.008 0.0248,0 0,0.008 -0.017,-0.003 -0.0248,0 -0.0175,0.006 -0.0315,0.0212 -0.0496,0.0248 -0.0243,0.005 -0.0501,-0.005 -0.0744,0 -0.0181,0.004 -0.0324,0.0179 -0.0496,0.0248 -0.0243,0.01 -0.049,0.0184 -0.0744,0.0248 -0.0148,0.004 -0.0496,-0.0111 -0.0496,0.0248 0,0.008 0.0165,0 0.0248,0 0.0413,0 0.0826,0 0.12395,0 0.0826,0 0.16527,0 0.24791,0 0.0165,0 0.033,0 0.0496,0 0.008,0 0.0189,-0.006 0.0248,0 0.006,0.006 0.006,0.0189 0,0.0248 -0.006,0.006 -0.017,-0.003 -0.0248,0 -0.14046,0.0702 0.037,-0.009 -0.0992,0.0248 -0.0179,0.004 -0.032,0.0189 -0.0496,0.0248 -0.0458,0.0153 -0.0117,-0.0378 -0.0744,0.0248 -0.006,0.006 0.0165,0 0.0248,0 0.0331,0 0.0661,0 0.0992,0 0.0826,0 0.16527,0 0.2479,0 0.0165,0 0.0331,0 0.0496,0 0.008,0 -0.0168,-0.002 -0.0248,0 -0.0254,0.006 -0.0501,0.0151 -0.0744,0.0248 -0.0855,0.0342 -0.0143,0.0222 -0.12395,0.0496 -0.0407,0.0102 -0.0231,-0.0265 -0.0744,0.0248 -0.006,0.006 0.0165,0 0.0248,0 0.0165,0 0.0331,0 0.0496,0 0.0248,0 0.0496,0 0.0744,0 0.0248,0 0.0499,0.004 0.0744,0 0.0258,-0.004 0.0496,-0.0165 0.0744,-0.0248 0.0901,-0.03 0.0482,-0.0248 0.12395,-0.0248 0.008,0 0.0248,-0.008 0.0248,0 0,0.008 -0.0165,0 -0.0248,0 -0.0248,0 -0.0496,0 -0.0744,0 -0.0165,0 -0.0333,-0.003 -0.0496,0 -0.0403,0.007 -0.13143,0.0327 -0.17353,0.0496 -0.0171,0.007 -0.033,0.0165 -0.0496,0.0248 -0.0165,0.008 -0.0365,0.0117 -0.0496,0.0248 -0.006,0.006 0.0165,0 0.0248,0 0.0165,0 0.033,0 0.0496,0 0.0165,0 0.0333,0.003 0.0496,0 0.0336,-0.006 0.0664,-0.0154 0.0992,-0.0248 0.0251,-0.007 0.0485,-0.0211 0.0744,-0.0248 0.0327,-0.005 0.0661,0 0.0992,0 0.0248,0 0.0501,0.005 0.0744,0 0.0181,-0.004 0.032,-0.019 0.0496,-0.0248 0.008,-0.003 0.0248,-0.008 0.0248,0 0,0.008 -0.0165,0 -0.0248,0 -0.0165,0 -0.0331,0 -0.0496,0 -0.0496,0 -0.0992,0 -0.14875,0 -0.0248,0 -0.0508,0.008 -0.0744,0 -0.008,-0.003 -0.004,-0.0174 0,-0.0248 0.005,-0.0105 0.0165,-0.0165 0.0248,-0.0248 0.008,-0.008 0.0143,-0.0196 0.0248,-0.0248 0.007,-0.004 0.0189,0.006 0.0248,0 0.006,-0.006 -0.003,-0.017 0,-0.0248 0.006,-0.0175 0.0248,-0.0311 0.0248,-0.0496 0,-0.008 -0.0165,0 -0.0248,0 -0.0165,0 -0.0339,0.005 -0.0496,0 -0.0111,-0.004 -0.0165,-0.0165 -0.0248,-0.0248 -0.0413,0 -0.0826,0 -0.12395,0 -0.0331,0 -0.0661,0 -0.0992,0 -0.0331,0 -0.0663,-0.004 -0.0992,0 -0.0419,0.005 -0.0821,0.0195 -0.12395,0.0248 -0.0246,0.003 -0.0496,0 -0.0744,0 -0.0165,0 -0.0613,0.0117 -0.0496,0 0.0185,-0.0185 0.0496,-0.0165 0.0744,-0.0248 0.0248,-0.008 0.0501,-0.0151 0.0744,-0.0248 0.0172,-0.007 0.0313,-0.0222 0.0496,-0.0248 0.0409,-0.006 0.0829,0.005 0.12395,0 0.0339,-0.004 0.0659,-0.0174 0.0992,-0.0248 0.0411,-0.009 0.0823,-0.0188 0.12396,-0.0248 0.0163,-0.002 0.033,0 0.0496,0 0.008,0 0.0165,0 0.0248,0 0.008,0 0.033,0 0.0248,0 -0.0165,0 -0.0336,-0.004 -0.0496,0 -0.0179,0.004 -0.0331,0.0165 -0.0496,0.0248 -0.0331,0.0165 -0.0641,0.0379 -0.0992,0.0496 -0.0157,0.005 -0.0331,0 -0.0496,0 -0.0248,0.0165 -0.0488,0.0342 -0.0744,0.0496 -0.13534,0.0812 0.0324,-0.019 -0.0992,0.0248 -0.0111,0.004 -0.0143,0.0196 -0.0248,0.0248 -0.007,0.004 -0.0331,0 -0.0248,0 0.0413,0 0.0826,0 0.12395,0 0.008,0 -0.017,-0.003 -0.0248,0 -0.0175,0.006 -0.0314,0.0217 -0.0496,0.0248 -0.0326,0.005 -0.0664,-0.005 -0.0992,0 -0.0259,0.004 -0.0496,0.0165 -0.0744,0.0248 -0.0248,0.008 -0.0501,0.0151 -0.0744,0.0248 -0.0712,0.0285 -0.0247,0.0248 -0.0744,0.0248 -0.008,0 -0.0331,0 -0.0248,0 0.0165,0 0.0331,0 0.0496,0 0.008,-0.008 0.0134,-0.022 0.0248,-0.0248 0.0241,-0.006 0.0498,0.003 0.0744,0 0.20159,-0.0288 0.0232,-0.0248 0.14874,-0.0248 0.17583,0 0.0145,0.0175 0.0992,-0.0248 0.007,-0.004 0.0331,0 0.0248,0 -0.0331,0 -0.0661,0 -0.0992,0 -0.008,0 -0.017,-0.003 -0.0248,0 -0.0175,0.006 -0.0317,0.0203 -0.0496,0.0248 -0.0524,0.0131 -0.0523,-0.022 -0.0992,0.0248 -0.006,0.006 -0.008,0.0248 0,0.0248 0.0261,0 0.049,-0.0184 0.0744,-0.0248 0.008,-0.002 0.0165,0 0.0248,0 0.0248,0 0.0503,0.006 0.0744,0 0.0113,-0.003 0.0331,-0.0165 0.0248,-0.0248 -0.0117,-0.0117 -0.0331,0 -0.0496,0 -0.0331,0 -0.0661,0 -0.0992,0 -0.0165,0 -0.0335,-0.004 -0.0496,0 -0.0179,0.004 -0.032,0.019 -0.0496,0.0248 -0.008,0.003 -0.0313,-0.005 -0.0248,0 0.082,0.0632 0.16994,0.11833 0.25492,0.1775"
       id="path1275"
       inkscape:connector-curvature="0" />
    <path
       style="fill:none;stroke:#000000;stroke-width:0.26458332px;stroke-linecap:butt;stroke-linejoin:miter;stroke-opacity:1"
       d="m 31.210882,173.51993 c -0.263242,-0.0142 -0.01622,0.12347 -0.04958,0.17353 -0.01296,0.0194 -0.03556,0.0309 -0.04958,0.0496 -0.01109,0.0148 -0.01452,0.0342 -0.02479,0.0496 -0.0065,0.01 -0.01654,0.0165 -0.02479,0.0248 -0.0083,0.0165 -0.01455,0.0342 -0.02479,0.0496 -0.0065,0.01 -0.02479,0.0131 -0.02479,0.0248 0,0.008 0.02479,-0.008 0.02479,0 0,0.008 -0.03305,0 -0.02479,0 0.01654,0 0.03305,0 0.04958,0 0.02479,0 0.04958,0 0.07437,0 0.01654,0 0.03355,0.004 0.04958,0 0.113943,-0.0285 0.0056,-0.0248 0.07437,-0.0248 0.0083,0 0.01894,-0.006 0.02479,0 0.0058,0.006 0,0.0165 0,0.0248 0,0.008 0,0.0165 0,0.0248 0,0.008 0.0058,0.0189 0,0.0248 -0.0058,0.006 -0.01894,-0.006 -0.02479,0 -0.0058,0.006 -0.0083,0.0248 0,0.0248 0.01169,0 0.01434,-0.0196 0.02479,-0.0248 0.0074,-0.004 0.01696,0.003 0.02479,0 0.03181,-0.0106 0.0787,-0.0626 0.04958,0.0248 -0.0037,0.0111 -0.01831,0.0151 -0.02479,0.0248 -0.01024,0.0154 -0.01172,0.0365 -0.02479,0.0496 -0.0058,0.006 -0.01894,-0.006 -0.02479,0 -0.01307,0.0131 -0.01172,0.0365 -0.02479,0.0496 -0.0058,0.006 -0.02479,0.008 -0.02479,0 0,-0.0117 0.01654,-0.0165 0.02479,-0.0248 0.05362,-0.0536 -2.65e-4,-0.008 0.123952,-0.0496 0.08546,-0.0285 0.01836,-0.0248 0.07437,-0.0248 0.0083,0 0.01894,-0.006 0.02479,0 0.0058,0.006 0.0026,0.017 0,0.0248 -0.0058,0.0175 -0.01894,0.032 -0.02479,0.0496 -0.0026,0.008 0.0058,0.0189 0,0.0248 -0.0058,0.006 -0.03305,0 -0.02479,0 0.04958,0 0.09916,0 0.148741,0 0.0083,0 0.01654,0 0.02479,0 0.0083,0 0.02479,-0.008 0.02479,0 0,0.0117 -0.01955,0.0143 -0.02479,0.0248 -0.01169,0.0234 -0.0091,0.0535 -0.02479,0.0744 -0.01109,0.0148 -0.03652,0.0117 -0.04958,0.0248 -0.01307,0.0131 -0.01894,0.032 -0.02479,0.0496 -0.0026,0.008 -0.0074,0.0211 0,0.0248 0.04708,0.0236 0.04793,-0.005 0.07437,-0.0248 0.02384,-0.0179 0.04611,-0.0402 0.07437,-0.0496 0.02352,-0.008 0.04958,0 0.07437,0 0.0083,0 0.01654,0 0.02479,0 0.0083,0 0.02109,-0.007 0.02479,0 0.0074,0.0148 0,0.0331 0,0.0496 0,0.008 0,0.0165 0,0.0248 0,0.008 0.0021,0.0168 0,0.0248 -0.0064,0.0253 -0.01844,0.049 -0.02479,0.0744 -0.0021,0.008 0,0.0165 0,0.0248 0,0.0165 0,0.0331 0,0.0496 0,0.008 -0.0058,0.0189 0,0.0248 0.0058,0.006 0.01894,-0.006 0.02479,0 0.0058,0.006 0,0.0165 0,0.0248 0.01654,0.008 0.03651,0.0117 0.04958,0.0248 0.128847,0.12885 -0.0235,0.0258 0.09916,0.12396 0.02326,0.0186 0.05148,0.0305 0.07437,0.0496 0.02693,0.0224 0.04958,0.0496 0.07437,0.0744 0.01654,0.0165 0.03305,0.0331 0.04958,0.0496 0.02479,0.0248 0.04958,0.0496 0.07437,0.0744 0.0083,0.008 0.01955,0.0143 0.02479,0.0248 0.0037,0.007 -0.0058,0.0189 0,0.0248 0.0058,0.006 0.01894,-0.006 0.02479,0 0.01169,0.0117 -0.01169,0.0379 0,0.0496 0.0058,0.006 0.01894,-0.006 0.02479,0 0.0058,0.006 -0.0058,0.0189 0,0.0248 0.01169,0.0117 0.03789,-0.0117 0.04958,0 0.0058,0.006 0,0.0165 0,0.0248 0,0.008 0.0058,0.0189 0,0.0248 -0.0058,0.006 -0.01654,0 -0.02479,0 -0.0083,0 -0.01654,0 -0.02479,0 -0.0083,0 -0.01654,0 -0.02479,0 -0.01654,0 -0.0339,0.005 -0.04958,0 -0.01109,-0.004 -0.01434,-0.0196 -0.02479,-0.0248 -0.0074,-0.004 -0.01894,0.006 -0.02479,0 -0.0058,-0.006 0.0058,-0.0189 0,-0.0248 -0.0058,-0.006 -0.01894,-0.006 -0.02479,0 -0.0058,0.006 0,0.0165 0,0.0248 0,0.008 0,0.0165 0,0.0248 0,0.0165 0,0.0331 0,0.0496 0,0.008 -0.0037,0.0174 0,0.0248 0.02665,0.0533 0.07251,0.0954 0.09916,0.14874 0.0037,0.007 -0.0058,0.0189 0,0.0248 0.01307,0.0131 0.03652,0.0117 0.04958,0.0248 0.01307,0.0131 0.01172,0.0365 0.02479,0.0496 0.05129,0.0513 -0.0021,-0.0784 0.04958,0.0248 0.0037,0.007 -0.0058,0.019 0,0.0248 0.0058,0.006 0.01894,0.006 0.02479,0 0.0058,-0.006 0.0037,-0.0174 0,-0.0248 -0.0032,-0.006 -0.04417,-0.0302 -0.02479,-0.0496 0.0058,-0.006 0.01741,-0.004 0.02479,0 0.131151,0.0656 0.02082,0.0326 0.148741,0.12395 0.03007,0.0215 0.06686,0.0316 0.09916,0.0496 0.04212,0.0234 0.08474,0.0464 0.123949,0.0744 0.01902,0.0136 0.03088,0.0356 0.04958,0.0496 0.01479,0.0111 0.03651,0.0117 0.04958,0.0248 0.05416,0.0542 0.04958,0.0521 0.04958,0.0992 0,0.008 -0.0037,0.0174 0,0.0248 0.0052,0.0105 0.03648,0.0248 0.02479,0.0248 -0.116557,0 -0.044,-0.0421 -0.123952,-0.0992 -0.03621,-0.0259 -0.08505,-0.028 -0.12395,-0.0496 -0.09472,-0.0526 -0.117276,-0.10149 -0.198323,-0.17353 -0.03954,-0.0352 -0.0806,-0.0688 -0.12395,-0.0992 -0.108992,-0.0763 -0.14328,-0.0618 -0.223112,-0.17353 -0.01519,-0.0213 -0.0145,-0.0504 -0.02479,-0.0744 -0.01455,-0.034 -0.03457,-0.0654 -0.04958,-0.0992 -0.02816,-0.0634 -0.08346,-0.20987 -0.09916,-0.27269 -0.004,-0.016 0.0032,-0.0334 0,-0.0496 -0.0024,-0.0121 -0.03305,-0.10742 -0.04958,-0.12395 -0.0058,-0.006 -0.0046,0.0179 0,0.0248 0.01296,0.0194 0.03305,0.0331 0.04958,0.0496 0.03306,0.0331 0.06611,0.0661 0.09916,0.0992 0.01654,0.0165 0.03088,0.0356 0.04958,0.0496 0.01479,0.0111 0.03305,0.0165 0.04958,0.0248 0.01654,0.008 0.03651,0.0117 0.04958,0.0248 0.01307,0.0131 0.01172,0.0365 0.02479,0.0496 0.0058,0.006 0.02479,-0.008 0.02479,0 0,0.008 -0.01791,0.005 -0.02479,0 -0.01945,-0.013 -0.03133,-0.035 -0.04958,-0.0496 -0.02326,-0.0186 -0.0533,-0.0285 -0.07437,-0.0496 -0.02922,-0.0292 -0.04716,-0.0681 -0.07437,-0.0992 -0.03078,-0.0352 -0.06398,-0.0684 -0.09916,-0.0992 -0.03109,-0.0272 -0.07195,-0.0433 -0.09916,-0.0744 -0.03173,-0.0363 -0.04603,-0.085 -0.07437,-0.12395 -0.03796,-0.0522 -0.08363,-0.0983 -0.123952,-0.14874 -0.0258,-0.0323 -0.04792,-0.0674 -0.07437,-0.0992 -0.01498,-0.018 -0.03556,-0.0309 -0.04958,-0.0496 -0.01109,-0.0148 -0.01172,-0.0365 -0.02479,-0.0496 -0.01307,-0.0131 -0.05784,-0.008 -0.04958,-0.0248 0.0083,-0.0165 0.0348,0.0137 0.04958,0.0248 0.0011,7.9e-4 0.09772,0.098 0.09916,0.0992 0.02326,0.0186 0.05111,0.031 0.07437,0.0496 0.01826,0.0146 0.03306,0.0331 0.04958,0.0496 0.0083,0.008 0.01654,0.0165 0.02479,0.0248 0.0083,0.008 0.01654,0.0165 0.02479,0.0248 0.0083,0.008 0.01955,0.0143 0.02479,0.0248 0.0037,0.007 0,0.0165 0,0.0248 0,0.008 0,0.0165 0,0.0248 0,0.0165 0,0.0331 0,0.0496 0,0.008 0.0083,0.0248 0,0.0248 -0.01169,0 -0.01508,-0.0183 -0.02479,-0.0248 -0.01537,-0.0102 -0.0348,-0.0137 -0.04958,-0.0248 -0.0374,-0.028 -0.06176,-0.0711 -0.09916,-0.0992 -0.01479,-0.0111 -0.03421,-0.0146 -0.04958,-0.0248 -0.0097,-0.006 -0.01434,-0.0196 -0.02479,-0.0248 -0.0074,-0.004 -0.01894,0.006 -0.02479,0 -0.0058,-0.006 0,-0.0331 0,-0.0248 0,0.0413 0,0.0826 0,0.12395 0,0.0331 -0.01228,0.0685 0,0.0992 0.0069,0.0172 0.03804,0.0104 0.04958,0.0248 0.02307,0.0289 0.02999,0.0678 0.04958,0.0992 0.0241,0.0386 0.08152,0.1148 0.123952,0.14874 0.02326,0.0186 0.0511,0.031 0.07437,0.0496 0.01826,0.0146 0.03305,0.0331 0.04958,0.0496 0.02204,0.022 0.03353,0.0452 0.07437,0.0248 0.0074,-0.004 0,-0.0165 0,-0.0248 0,-0.008 0,-0.0165 0,-0.0248 0,-0.0165 0.0052,-0.0339 0,-0.0496 -0.0037,-0.0111 -0.01654,-0.0165 -0.02479,-0.0248 -0.01654,-0.0165 -0.03305,-0.0331 -0.04958,-0.0496 -0.01654,-0.0165 -0.03133,-0.035 -0.04958,-0.0496 -0.07158,-0.0573 -0.07074,-0.0327 -0.123952,-0.0992 -0.01654,-0.0248 -0.03305,-0.0496 -0.04958,-0.0744 -0.01654,-0.008 -0.03652,-0.0117 -0.04958,-0.0248 -0.01307,-0.0131 -0.01172,-0.0365 -0.02479,-0.0496 -0.0058,-0.006 -0.01894,0.006 -0.02479,0 -0.0058,-0.006 0,-0.033 0,-0.0248 0,0.0393 -0.0074,0.067 0.02479,0.0992 0.0058,0.006 0.01894,-0.006 0.02479,0 0.0058,0.006 0,0.0331 0,0.0248 0,-0.11627 0.01169,0.0234 -0.04958,-0.0992 -0.0074,-0.0148 0.0074,-0.0348 0,-0.0496 -0.08071,-0.16142 -0.02484,0.0494 -0.07437,-0.0992 -0.0026,-0.008 0.0026,-0.017 0,-0.0248 -6.1e-5,-1.8e-4 -0.03067,-0.0744 -0.04958,-0.0744 -0.0083,0 -0.0058,0.0189 0,0.0248 0.0058,0.006 0.01894,-0.006 0.02479,0 0.01482,0.0148 -0.02679,0.0496 0.02479,0.0496 0.0083,0 0.0037,-0.0174 0,-0.0248 -0.0052,-0.0104 -0.02109,-0.0137 -0.02479,-0.0248 -0.0052,-0.0157 0.0092,-0.0358 0,-0.0496 -0.01024,-0.0154 -0.03933,-0.009 -0.04958,-0.0248 -0.0092,-0.0138 0.004,-0.0336 0,-0.0496 -0.01797,-0.0719 -0.01934,-0.029 -0.04958,-0.0744 -0.01482,-0.0222 -0.04958,-0.1038 -0.04958,-0.12395 0,-0.0117 0.01434,0.0196 0.02479,0.0248 0.0074,0.004 0.01654,0 0.02479,0 0.0083,0 0.03063,0.006 0.02479,0 -0.01307,-0.0131 -0.03305,-0.0165 -0.04958,-0.0248 -0.0083,-0.0165 -0.01172,-0.0365 -0.02479,-0.0496 -0.02614,-0.0262 -0.07303,-0.0234 -0.09916,-0.0496 -0.0058,-0.006 0,-0.0165 0,-0.0248 0,-0.008 0,-0.0331 0,-0.0248 0,0.0496 0,0.0992 0,0.14874 0,0.0165 -0.0052,0.0339 0,0.0496 0.03063,0.0919 0.02479,-0.0302 0.02479,0.0496 0,0.008 0.0083,0.0248 0,0.0248 -0.0083,0 0,-0.0165 0,-0.0248 0,-0.008 0,-0.0165 0,-0.0248 0,-0.0331 0,-0.0661 0,-0.0992 0,-0.008 0.0058,-0.0189 0,-0.0248 -0.0058,-0.006 -0.01895,-0.006 -0.02479,0 -0.0058,0.006 0,0.0165 0,0.0248 0,0.008 0,0.0165 0,0.0248 0,0.0165 0.0074,0.0348 0,0.0496 -0.0037,0.007 -0.01654,0 -0.02479,0 0,0.0165 0,0.0331 0,0.0496 0,0.008 0,-0.0165 0,-0.0248 0,-0.0581 0.0058,0.0117 -0.02479,-0.0496 -0.0037,-0.007 0,-0.0331 0,-0.0248 0,0.0331 0,0.0661 0,0.0992 0,0.008 -0.0083,0.0248 0,0.0248 0.03063,0 0.02479,-0.0348 0.02479,-0.0496 0,-0.008 0,-0.0331 0,-0.0248 0,0.0248 0,0.0496 0,0.0744 0,0.008 0.0083,0.0248 0,0.0248 -0.0083,0 0,-0.0165 0,-0.0248 0,-0.008 -0.0037,-0.0174 0,-0.0248 0.01045,-0.0209 0.03913,-0.0287 0.04958,-0.0496 0.0052,-0.0103 -0.0058,-0.0438 0,-0.0496 0.0058,-0.006 0.01741,-0.004 0.02479,0 0.0227,0.0114 0.04354,0.0563 0.04958,0.0744 0.0026,0.008 0,0.0165 0,0.0248 0,0.008 -0.0058,0.0189 0,0.0248 0.0058,0.006 0.03302,8e-4 0.02479,0 -0.116708,-0.0104 -0.233542,-0.0194 -0.350313,-0.029"
       id="path1277"
       inkscape:connector-curvature="0" />
    <path
       style="fill:none;stroke:#000000;stroke-width:0.26458332px;stroke-linecap:butt;stroke-linejoin:miter;stroke-opacity:1"
       d="m 163.96164,180.95627 c -0.41626,2.05028 0.83185,-0.0528 1.09453,0.20991 0.0661,0.0661 -0.0661,0.21436 0,0.28047 0.0661,0.0661 0.21437,-0.0661 0.28047,0 0.0331,0.0331 -0.033,0.10718 0,0.14024 0.0331,0.0331 0.0935,0 0.14024,0 0,0.0467 -0.0331,0.10718 0,0.14023 0.0331,0.033 0.10718,-0.0331 0.14023,0 0.0331,0.033 -0.0331,0.10718 0,0.14024 0.0331,0.0331 0.10719,-0.0331 0.14024,0 0.0331,0.0331 -0.0331,0.10718 0,0.14023 0.0331,0.0331 0.10718,-0.0331 0.14023,0 0.0331,0.0331 -0.0331,0.10718 0,0.14023 0.0661,0.0661 0.21436,-0.0661 0.28047,0 0.0331,0.0331 -0.0331,0.10718 0,0.14024 0.37396,0 -0.0467,-0.0468 0.14024,0.14023 0.0331,0.0331 0.10718,-0.0331 0.14023,0 0.0331,0.0331 -0.0331,0.10718 0,0.14024 0.0331,0.0331 0.0935,0 0.14024,0 0.0467,0 0.0935,0 0.14023,0 0.0468,0 0.10718,-0.0331 0.14024,0 0.0331,0.0331 -0.0331,0.10718 0,0.14023 0.0331,0.0331 0.0935,0 0.14023,0 0.0467,0 0.0935,0 0.14023,0 0.0467,0 0.10718,-0.0331 0.14024,0 0.0331,0.0331 -0.0331,0.10718 0,0.14024 0.0661,0.0661 0.21436,-0.0661 0.28047,0 0.0331,0.0331 -0.0331,0.10718 0,0.14023 0.37396,0 -0.0468,-0.0467 0.14023,0.14024 0.0331,0.0331 0.0935,0 0.14024,0 0.0467,0 0.0935,0 0.14023,0 0.0468,0 0.10718,-0.0331 0.14024,0 0.033,0.0331 -0.0331,0.10718 0,0.14023 0.033,0.0331 0.0935,0 0.14023,0 0.0468,0 0.0935,0 0.14024,0 0.0467,0 0.10718,-0.0331 0.14023,0 0.0331,0.0331 -0.0331,0.10718 0,0.14023 0.0661,0.0661 0.2825,-0.0935 0.28047,0 -0.002,0.0891 -0.0967,0.14969 -0.14511,0.22454 -0.89713,-0.39119 -0.62143,-0.14967 -0.97676,-0.505 -0.0468,-0.0468 -0.0811,-0.11067 -0.14024,-0.14024 -0.0585,-0.0292 -0.24782,0.0327 -0.28047,0 -0.0331,-0.0331 0.0331,-0.10718 0,-0.14023 -0.0331,-0.0331 -0.0935,0 -0.14023,0 0,-0.0468 0.0331,-0.10718 0,-0.14024 -0.0331,-0.0331 -0.10718,0.0331 -0.14024,0 -0.0331,-0.0331 0.0331,-0.10718 0,-0.14023 -0.0331,-0.0331 -0.10718,0.0331 -0.14023,0 -0.0331,-0.0331 0,-0.0935 0,-0.14023 -0.0468,0 -0.10718,0.0331 -0.14024,0 -0.0661,-0.0661 0.0661,-0.21437 0,-0.28047 -0.0331,-0.0331 -0.10718,0.0331 -0.14023,0 -0.0661,-0.0661 0.0661,-0.21437 0,-0.28047 -0.0331,-0.0331 -0.0984,0.0209 -0.14024,0 -0.0591,-0.0296 -0.0811,-0.11067 -0.14023,-0.14024 -0.0585,-0.0293 -0.24782,0.0326 -0.28047,0 -0.18698,-0.18698 0.23372,-0.14023 -0.14024,-0.14023 -0.37395,0 0.0468,0.0467 -0.14023,-0.14024 -0.0331,-0.0331 -0.10718,0.0331 -0.14023,0 -0.0331,-0.0331 0.0331,-0.10718 0,-0.14023 -0.0468,-0.0468 -0.2337,0.0468 -0.28047,0 -0.0331,-0.0331 -0.0468,-0.14024 0,-0.14024 0.0467,0 -0.0331,0.10718 0,0.14024 0.0331,0.0331 0.0935,0 0.14023,0 0,0.0467 -0.0331,0.10718 0,0.14023 0.0661,0.0661 0.21436,-0.0661 0.28047,0 0.0331,0.0331 -0.0331,0.10718 0,0.14024 0.0331,0.0331 0.0984,-0.0209 0.14023,0 0.0591,0.0296 0.0811,0.11067 0.14024,0.14023 0.0418,0.0209 0.10718,-0.0331 0.14023,0 0.0331,0.0331 -0.0331,0.10718 0,0.14024 0.0331,0.0331 0.10718,-0.0331 0.14024,0 0.0331,0.0331 -0.0331,0.10718 0,0.14023 0.0661,0.0661 0.21436,-0.0661 0.28047,0 0.0331,0.0331 -0.0331,0.10718 0,0.14024 0.0661,0.0661 0.21436,-0.0661 0.28047,0 0.0331,0.0331 -0.0331,0.10718 0,0.14023 0.0661,0.0661 0.21436,-0.0661 0.28047,0 0.0331,0.0331 -0.0331,0.10718 0,0.14024 0.0661,0.0661 0.21436,-0.0661 0.28047,0 0.0331,0.0331 -0.0331,0.10718 0,0.14023 0.0661,0.0661 0.28047,-0.0935 0.28047,0 0,0.0419 -0.4651,-0.0923 0,0.14023 0.0836,0.0418 0.19684,-0.0418 0.28046,0 0.0591,0.0296 0.0811,0.11068 0.14024,0.14024 0.0585,0.0293 0.24782,-0.0326 0.28047,0 0.0331,0.0331 -0.0331,0.10718 0,0.14023 0.0331,0.0331 0.13703,-0.0466 0.14023,0 0.009,0.12955 -0.0764,0.24819 -0.11468,0.37229"
       id="path1386"
       inkscape:connector-curvature="0" />
    <path
       style="fill:none;stroke:#000000;stroke-width:0.26458332px;stroke-linecap:butt;stroke-linejoin:miter;stroke-opacity:1"
       d="m 133.47053,173.8422 c -0.43234,-0.33504 -0.25824,-0.29748 -0.59497,-0.29748 -0.0331,0 -0.0758,0.0234 -0.0992,0 -0.0234,-0.0234 0.0234,-0.0758 0,-0.0992 -0.0234,-0.0234 -0.0661,0 -0.0992,0 -0.0331,0 -0.0661,0 -0.0992,0 -0.0661,0 -0.13222,0 -0.19832,0 -0.0331,0 -0.0758,0.0234 -0.0992,0 -0.0234,-0.0234 0.0234,-0.0758 0,-0.0992 -0.066,-0.066 -0.13235,0.066 -0.19833,0 -0.0234,-0.0234 0.0234,-0.0758 0,-0.0992 -0.0234,-0.0234 -0.0661,0 -0.0992,0 -0.0661,0 -0.13221,0 -0.19832,0 -0.033,0 -0.0758,0.0234 -0.0992,0 -0.0234,-0.0234 0.0234,-0.0758 0,-0.0992 -0.0234,-0.0234 -0.0661,0 -0.0992,0 -0.0331,0 -0.0661,0 -0.0992,0 -0.0992,0 -0.19832,0 -0.29748,0 -0.0331,0 -0.0758,0.0234 -0.0992,0 -0.0234,-0.0234 0.0234,-0.0758 0,-0.0992 -0.0467,-0.0467 -0.19833,0.0661 -0.19833,0 0,-0.0331 0.0758,-0.0234 0.0992,0 0.0234,0.0234 -0.0234,0.0758 0,0.0992 0.0661,0.0661 0.13226,-0.0661 0.19832,0 0.0467,0.0468 -0.0468,0.15158 0,0.19833 0.0231,0.0231 0.15695,-0.0207 0.19832,0 0.0418,0.0209 0.0574,0.0783 0.0992,0.0992 0.0414,0.0207 0.17524,-0.0231 0.19832,0 0.0234,0.0234 -0.0234,0.0758 0,0.0992 0.0234,0.0234 0.0661,0 0.0992,0 0.0331,0 0.0661,0 0.0992,0 0.0331,0 0.0758,-0.0234 0.0992,0 0.0234,0.0234 -0.0234,0.0758 0,0.0992 0.0468,0.0467 0.15158,-0.0468 0.19833,0 0.0234,0.0234 -0.0234,0.0758 0,0.0992 0.0101,0.0101 0.29748,-0.009 0.29748,0 0,0.0331 -0.13222,0 -0.0992,0 0.0661,0 0.26367,0.01 0.19832,0 -0.43489,-0.0662 -0.87255,-0.11277 -1.30883,-0.16916"
       id="path1392"
       inkscape:connector-curvature="0" />
    <path
       style="fill:none;stroke:#000000;stroke-width:0.26458332px;stroke-linecap:butt;stroke-linejoin:miter;stroke-opacity:1"
       d="m 99.375551,96.375843 40.166459,0.104058 c 6.52681,-4.891889 12.6873,-8.303274 22.42453,-26.170628 l -50.83241,10.457844 z"
       id="path160"
       inkscape:connector-curvature="0"
       sodipodi:nodetypes="ccccc" />
    <path
       style="opacity:1;fill:#decd87;fill-opacity:1;stroke:#000000;stroke-width:1.48645318;stroke-linecap:butt;stroke-linejoin:round;stroke-miterlimit:4;stroke-dasharray:none;stroke-dashoffset:0;stroke-opacity:1;paint-order:normal"
       d="m 377.97122,363.04314 c 0,-1.10303 39.23547,-54.06983 41.70416,-56.1986 2.35302,-2.02903 5.19882,0.13103 57.13564,-10.17063 57.16173,-11.33802 84.751,-17.32723 114.24315,-24.80045 9.25698,-2.34569 20.04661,-6.35858 20.25161,-6.15357 0.48652,0.48652 -30.86682,47.01018 -36.42376,54.4525 -10.39342,13.91973 -21.16814,23.96277 -37.021,34.50701 -6.15542,4.09416 -11.39724,7.77656 -11.6485,8.1831 -0.53464,0.86506 -148.2413,1.04505 -148.2413,0.18064 z"
       id="path162"
       inkscape:connector-curvature="0"
       transform="scale(0.26458333)"
       sodipodi:nodetypes="sssscsscs" />
    <path
       style="opacity:1;fill:#ffffff;fill-opacity:1;fill-rule:evenodd;stroke:#000000;stroke-width:4.41196537;stroke-linecap:square;stroke-linejoin:round;stroke-miterlimit:4;stroke-dasharray:none;stroke-dashoffset:0;stroke-opacity:1;paint-order:fill markers stroke"
       d="m 418.98859,296.69489 c -5.59055,-9.59588 -19.72431,-38.69364 -24.72285,-50.89793 -7.3388,-17.91823 -17.00478,-46.79412 -16.13503,-48.20139 1.09423,-1.77051 27.25508,-13.99305 40.39762,-18.87408 14.90065,-5.53396 35.0234,-10.65118 48.14176,-12.24245 30.9197,-3.75059 48.1214,1.10842 74.70928,21.10329 15.0562,11.3227 44.77512,40.48531 55.7175,54.67452 7.4116,9.61076 13.61529,20.34243 12.43925,21.51847 -1.48235,1.48235 -41.99867,9.89258 -109.62559,22.7557 -40.75339,7.75158 -74.99806,14.29883 -76.09926,14.54945 -1.36265,0.31012 -2.90309,-1.09069 -4.82268,-4.38558 z"
       id="path852"
       inkscape:connector-curvature="0"
       transform="scale(0.26458333)" />
    <path
       style="opacity:1;fill:#ffffff;fill-opacity:1;fill-rule:evenodd;stroke:#000000;stroke-width:4.41196537;stroke-linecap:square;stroke-linejoin:round;stroke-miterlimit:4;stroke-dasharray:none;stroke-dashoffset:0;stroke-opacity:1;paint-order:fill markers stroke"
       d="m 331.25953,429.16396 c -21.18709,-12.73308 -40.47855,-25.05378 -42.86991,-27.37933 -8.39003,-8.15912 -15.07819,-24.80743 -22.3723,-55.68962 -6.04737,-25.60367 -8.6634,-28.96965 -18.06188,-23.23978 -2.15902,1.31626 -4.09634,2.22235 -4.30517,2.01351 -0.76826,-0.76826 16.78421,-23.34934 29.5889,-38.06582 34.45444,-39.59869 88.47025,-86.31327 100.08793,-86.55923 0.66601,-0.0141 2.95772,5.35868 5.09269,11.93952 6.77919,20.89617 11.72065,33.4 24.96223,63.16431 10.01384,22.50904 12.64139,29.44937 11.71145,30.93431 -0.65943,1.05296 -9.20541,12.40708 -18.9911,25.23136 -19.48097,25.53012 -22.347,30.33284 -26.03314,43.62483 -2.12451,7.66087 -2.47818,12.09743 -2.48039,31.11421 -0.002,15.88783 0.55606,25.15949 1.9668,32.68531 2.21469,11.81454 2.3478,13.43425 1.10136,13.40089 -0.48153,-0.0128 -18.21039,-10.44139 -39.39747,-23.17447 z"
       id="path854"
       inkscape:connector-curvature="0"
       transform="scale(0.26458333)" />
    <path
       style="opacity:1;fill:#ffffff;fill-opacity:1;fill-rule:evenodd;stroke:#000000;stroke-width:4.41196537;stroke-linecap:square;stroke-linejoin:round;stroke-miterlimit:4;stroke-dasharray:none;stroke-dashoffset:0;stroke-opacity:1;paint-order:fill markers stroke"
       d="m 382.1924,358.68343 c 1.45616,-2.0866 10.2907,-14.01834 19.63231,-26.51497 9.34161,-12.49663 17.31652,-23.19562 17.72202,-23.77555 0.4055,-0.57992 7.75969,-2.06944 16.34266,-3.31004 32.70931,-4.72787 143.5922,-28.12454 164.39017,-34.68688 4.14565,-1.30807 7.68555,-2.23031 7.86645,-2.04941 0.55556,0.55556 -31.79842,48.18888 -38.17071,56.19704 -7.9267,9.96162 -17.34749,18.35943 -32.64776,29.10261 l -12.57703,8.83103 h -72.60283 -72.60283 z"
       id="path856"
       inkscape:connector-curvature="0"
       transform="scale(0.26458333)" />
    <path
       style="opacity:1;fill:#ffffff;fill-opacity:1;fill-rule:evenodd;stroke:#000000;stroke-width:4.41196537;stroke-linecap:square;stroke-linejoin:round;stroke-miterlimit:4;stroke-dasharray:none;stroke-dashoffset:0;stroke-opacity:1;paint-order:fill markers stroke"
       d="m 626.70213,682.33673 c -10.08846,-6.60226 -10.55559,-7.10858 -15.66668,-16.98106 -5.79081,-11.1854 -15.40112,-22.44784 -22.84623,-26.77378 -2.63223,-1.52943 -12.14007,-5.50958 -21.12853,-8.84477 C 528.51736,615.43557 502.0129,601.58022 455.43652,571.385 412.55789,543.58702 416.27465,546.26583 402.82027,533.46225 l -10.62908,-10.11495 -6.63958,-32.28255 c -3.65177,-17.75541 -7.44949,-33.85846 -8.43937,-35.78456 -5.94404,-11.56576 -8.46381,-61.3035 -3.96227,-78.21127 1.19654,-4.49423 2.65384,-9.0906 3.23843,-10.21416 0.98999,-1.90269 4.93122,-2.04283 57.45186,-2.04283 31.01392,0 64.23844,0.33975 73.83226,0.755 l 17.44331,0.75501 2.87877,7.61182 c 3.70773,9.80364 12.64278,23.40539 18.94625,28.84167 10.62678,9.16483 18.15162,11.46754 45.80115,14.01585 21.1875,1.95274 31.79674,4.23441 32.88583,7.07257 0.37046,0.96539 -1.4736,18.93499 -4.09792,39.93245 -6.78391,54.27906 -6.97586,56.61911 -7.77553,94.79282 l -0.72136,34.43631 12.9093,47.80039 c 7.10012,26.29022 12.90931,47.95883 12.90931,48.15247 0,1.01789 -2.70563,-0.46115 -12.1495,-6.64156 z"
       id="path858"
       inkscape:connector-curvature="0"
       transform="scale(0.26458333)" />
    <path
       style="opacity:1;fill:#ffffff;fill-opacity:1;fill-rule:evenodd;stroke:#000000;stroke-width:4.41196537;stroke-linecap:square;stroke-linejoin:round;stroke-miterlimit:4;stroke-dasharray:none;stroke-dashoffset:0;stroke-opacity:1;paint-order:fill markers stroke"
       d="m 332.1167,522.0675 -55.17479,-12.72848 -48.13414,11.20677 -48.13413,11.20677 -18.38549,-0.006 c -10.11202,-0.003 -18.38548,-0.20253 -18.38548,-0.44269 0,-0.24014 1.2617,-2.73532 2.80378,-5.54483 3.90808,-7.12007 14.8492,-36.57846 27.94795,-75.24833 12.65139,-37.34917 19.80681,-54.18973 31.64119,-74.46874 14.53647,-24.9092 30.26638,-43.08867 43.04824,-49.75197 5.32319,-2.77503 5.67428,-2.81566 7.1497,-0.82751 0.85339,1.14995 3.93413,11.96586 6.8461,24.03534 6.0104,24.91182 10.57851,37.71443 16.97863,47.58439 8.32317,12.83559 12.785,16.07368 54.54074,39.58211 23.91647,13.46493 39.67826,23.03127 40.28881,24.45257 0.55161,1.28406 4.18523,17.71818 8.07474,36.52025 5.75874,27.83815 6.79302,34.46162 5.57037,35.67222 -1.21724,1.20525 -11.94503,-0.92262 -56.67622,-11.24183 z"
       id="path860"
       inkscape:connector-curvature="0"
       transform="scale(0.26458333)" />
    <path
       style="opacity:1;fill:#ffffff;fill-opacity:1;fill-rule:evenodd;stroke:#000000;stroke-width:4.41196537;stroke-linecap:square;stroke-linejoin:round;stroke-miterlimit:4;stroke-dasharray:none;stroke-dashoffset:0;stroke-opacity:1;paint-order:fill markers stroke"
       d="m 427.89411,715.3035 c -2.23899,-2.40762 -12.10814,-14.41741 -21.93145,-26.68839 L 388.1021,666.3042 357.74669,648.51469 327.39126,630.72519 307.04135,600.20198 c -11.19245,-16.78776 -23.19193,-33.63763 -26.66551,-37.44416 -8.28164,-9.07543 -22.44401,-19.50092 -35.17958,-25.89711 -5.63291,-2.82902 -10.2397,-5.79502 -10.2373,-6.59112 0.002,-0.7961 0.97074,-3.03211 2.15187,-4.96891 2.01619,-3.30613 3.29977,-3.78859 20.99155,-7.89007 l 18.84404,-4.36861 27.45534,6.37841 c 66.55146,15.46118 87.08036,20.88296 86.24527,22.7778 -0.43614,0.98959 -1.04009,3.56684 -1.34214,5.72723 -0.51497,3.68346 0.16829,4.62816 10.97571,15.17533 11.25929,10.98815 11.90146,11.9115 27.86752,40.06886 l 16.34266,28.82152 26.84864,12.79763 26.84865,12.79761 67.495,19.08215 c 59.51787,16.82686 66.968,19.18357 63.03595,19.94037 -2.45247,0.47202 -38.34087,4.80821 -79.75199,9.63599 -41.41112,4.82777 -83.96039,9.82595 -94.55393,11.10707 -10.59354,1.28113 -19.97809,2.32925 -20.85454,2.32918 -0.87646,-8e-5 -3.42546,-1.97003 -5.66445,-4.37765 z"
       id="path862"
       inkscape:connector-curvature="0"
       transform="scale(0.26458333)" />
    <path
       style="opacity:1;fill:#ffffff;fill-opacity:1;fill-rule:evenodd;stroke:#000000;stroke-width:4.41196537;stroke-linecap:square;stroke-linejoin:round;stroke-miterlimit:4;stroke-dasharray:none;stroke-dashoffset:0;stroke-opacity:1;paint-order:fill markers stroke"
       d="m 324.8392,719.47344 c -40.76909,-0.53172 -91.43093,-1.35918 -112.58187,-1.83878 l -38.45625,-0.87199 -20.28317,-22.73409 C 142.36217,681.52482 130.3442,667.7169 126.8113,663.34431 l -6.42344,-7.95018 4.88889,-28.84968 c 6.15713,-36.33367 15.82088,-88.88606 16.4632,-89.52838 0.26769,-0.26768 10.18788,-1.03506 22.04486,-1.70527 19.03656,-1.07604 24.31884,-1.861 45.16032,-6.71099 12.9812,-3.02082 23.89586,-5.19872 24.25481,-4.83977 0.35896,0.35896 0.0912,2.12933 -0.59499,3.93418 -0.6862,1.80484 -0.98676,3.96136 -0.66792,4.79226 0.31885,0.8309 4.93666,3.70029 10.26181,6.37644 25.95139,13.04182 33.97692,21.14007 61.3713,61.92735 l 21.81196,32.47566 23.9507,13.98972 c 13.17288,7.69435 25.59219,15.00815 27.59846,16.2529 2.85788,1.77312 41.48395,49.4795 45.24443,55.88062 0.66591,1.13351 -1.82851,1.41362 -11.17683,1.2551 -6.61872,-0.11218 -45.39058,-0.6391 -86.15966,-1.17083 z"
       id="path864"
       inkscape:connector-curvature="0"
       transform="scale(0.26458333)" />
    <path
       style="opacity:1;fill:#ffffff;fill-opacity:1;fill-rule:evenodd;stroke:#000000;stroke-width:1.16733253;stroke-linecap:square;stroke-linejoin:round;stroke-miterlimit:4;stroke-dasharray:none;stroke-dashoffset:0;stroke-opacity:1;paint-order:fill markers stroke"
       d="m 166.09535,183.6398 c -0.50961,-0.12462 -1.48251,-0.50828 -2.16199,-0.8526 -0.67949,-0.34431 -6.93384,-2.26236 -13.89856,-4.26232 -16.22415,-4.65888 -19.49845,-5.78828 -26.18255,-9.03113 l -5.48915,-2.6631 -3.7456,-6.50729 c -4.38374,-7.61593 -4.82304,-8.21583 -7.84976,-10.71944 -1.26021,-1.04241 -2.58365,-2.36833 -2.94097,-2.94649 l -0.64967,-1.05119 0.69046,-1.84627 c 0.67343,-1.80076 0.67725,-1.88084 0.15467,-3.24919 -0.29468,-0.77161 -0.46259,-1.47613 -0.37312,-1.56559 0.0895,-0.0895 1.87625,1.46134 3.97063,3.44624 4.9625,4.70308 7.76152,6.87273 13.28279,10.2961 10.98441,6.81071 19.26129,11.10457 27.14399,14.08168 8.64611,3.26544 10.75695,4.81412 13.04736,9.57255 1.43592,2.98321 3.48504,5.03636 6.48163,6.49439 l 2.22612,1.08315 -1.38985,-0.0265 c -0.76442,-0.0146 -1.80681,-0.12843 -2.31643,-0.25304 z"
       id="path868"
       inkscape:connector-curvature="0" />
    <path
       style="opacity:1;fill:#000000;fill-opacity:1;fill-rule:evenodd;stroke:#000000;stroke-width:0.38996634;stroke-linecap:square;stroke-linejoin:round;stroke-miterlimit:4;stroke-dasharray:none;stroke-dashoffset:0;stroke-opacity:1;paint-order:fill markers stroke"
       d="m 391.07777,535.97978 c -0.43102,-0.10304 -0.47757,-0.14009 -0.69926,-0.55661 l -0.19238,-0.36143 0.27652,-0.29198 c 0.15208,-0.16058 0.35239,-0.43126 0.44513,-0.60151 0.14847,-0.27254 0.17354,-0.28487 0.20979,-0.10318 0.0226,0.1135 0.12344,0.61262 0.22399,1.10917 0.10055,0.49655 0.154,0.89806 0.11878,0.89225 -0.0352,-0.006 -0.20737,-0.0448 -0.38257,-0.0867 z"
       id="path870"
       inkscape:connector-curvature="0"
       transform="scale(0.26458333)" />
  </g>
</svg>
